<svg width="19" height="19" viewBox="0 0 19 19" fill="none" xmlns="http://www.w3.org/2000/svg">
<path d="M11.7027 7.29665L7.29257 11.7068C6.72605 11.1403 6.37742 10.3646 6.37742 9.50172C6.37742 7.77602 7.77193 6.38151 9.49763 6.38151C10.3605 6.38151 11.1362 6.73014 11.7027 7.29665Z" stroke="#565660" stroke-width="1.5" stroke-linecap="round" stroke-linejoin="round"/>
<path d="M14.5732 4.06995C13.0479 2.91948 11.3048 2.29195 9.50063 2.29195C6.424 2.29195 3.55654 4.10481 1.56065 7.24245C0.77624 8.47136 0.77624 10.537 1.56065 11.7659C2.24919 12.8466 3.05103 13.7792 3.9226 14.5288" stroke="#565660" stroke-width="1.5" stroke-linecap="round" stroke-linejoin="round"/>
<path d="M6.37742 16.0627C7.37101 16.4811 8.42561 16.7077 9.49763 16.7077C12.5743 16.7077 15.4417 14.8948 17.4376 11.7572C18.222 10.5283 18.222 8.46265 17.4376 7.23374C17.15 6.78052 16.8362 6.35345 16.5138 5.95253" stroke="#565660" stroke-width="1.5" stroke-linecap="round" stroke-linejoin="round"/>
<path d="M12.5571 10.1115C12.3305 11.3405 11.3282 12.3428 10.0993 12.5694" stroke="#565660" stroke-width="1.5" stroke-linecap="round" stroke-linejoin="round"/>
<path d="M7.29502 11.7049L0.784411 18.2155" stroke="#565660" stroke-width="1.5" stroke-linecap="round" stroke-linejoin="round"/>
<path d="M18.2155 0.784411L11.7049 7.29502" stroke="#565660" stroke-width="1.5" stroke-linecap="round" stroke-linejoin="round"/>
</svg>
