<svg width="24" height="23" viewBox="0 0 24 23" fill="none" xmlns="http://www.w3.org/2000/svg">
<path d="M10.9589 1.33685C11.4272 0.558759 12.5553 0.558759 13.0235 1.33685L15.9692 6.23153C16.1374 6.51106 16.4118 6.71042 16.7296 6.78403L22.295 8.07298C23.1797 8.27788 23.5283 9.35073 22.933 10.0365L19.1881 14.3505C18.9743 14.5969 18.8695 14.9195 18.8977 15.2445L19.3916 20.9358C19.4701 21.8405 18.5575 22.5036 17.7213 22.1493L12.4612 19.9209C12.1608 19.7936 11.8217 19.7936 11.5213 19.9209L6.26114 22.1493C5.42496 22.5036 4.51234 21.8405 4.59086 20.9358L5.08479 15.2445C5.113 14.9195 5.00819 14.5969 4.79433 14.3505L1.04947 10.0365C0.454162 9.35073 0.802751 8.27788 1.68746 8.07298L7.25284 6.78403C7.57067 6.71042 7.84506 6.51106 8.01329 6.23153L10.9589 1.33685Z" fill="white" stroke="white" stroke-width="1.5"/>
</svg>
