<svg width="20" height="12" viewBox="0 0 20 12" fill="none" xmlns="http://www.w3.org/2000/svg">
<path d="M0.769231 4.89583C0.344396 4.89583 2.88868e-08 5.24023 0 5.66506C-2.88869e-08 6.0899 0.344396 6.43429 0.769231 6.43429L0.769231 4.89583ZM19.7747 6.20899C20.0751 5.90859 20.0751 5.42154 19.7747 5.12114L14.8793 0.225782C14.5789 -0.0746214 14.0919 -0.0746214 13.7915 0.225782C13.4911 0.526186 13.4911 1.01324 13.7915 1.31364L18.1429 5.66507L13.7915 10.0165C13.4911 10.3169 13.4911 10.8039 13.7915 11.1043C14.0919 11.4048 14.5789 11.4048 14.8793 11.1043L19.7747 6.20899ZM0.769231 6.43429L19.2308 6.4343L19.2308 4.89583L0.769231 4.89583L0.769231 6.43429Z" fill="white"/>
</svg>
