<svg width="20" height="19" viewBox="0 0 20 19" fill="none" xmlns="http://www.w3.org/2000/svg">
<path fill-rule="evenodd" clip-rule="evenodd" d="M13.8757 5.03518H14.0554C16.4168 5.03518 18.3333 6.78625 18.3333 8.93422V13.2302C18.3333 15.3781 16.4168 17.1214 14.0554 17.1214H5.94452C3.58312 17.1214 1.66663 15.3781 1.66663 13.2302V8.93422C1.66663 6.78625 3.58312 5.03518 5.94452 5.03518H6.12419C6.1413 4.10128 6.54342 3.22964 7.27067 2.57591C8.00646 1.91439 8.9476 1.57974 10.0085 1.5564C12.1304 1.5564 13.8501 3.1129 13.8757 5.03518ZM8.16903 3.40864C7.68991 3.84446 7.42468 4.42036 7.40757 5.03518H12.5924C12.5667 3.75885 11.4202 2.72377 10.0085 2.72377C9.34973 2.72377 8.66527 2.96503 8.16903 3.40864ZM13.2511 8.03145C13.6105 8.03145 13.8928 7.76684 13.8928 7.44776V6.54499C13.8928 6.22591 13.6105 5.9613 13.2511 5.9613C12.9003 5.9613 12.6095 6.22591 12.6095 6.54499V7.44776C12.6095 7.76684 12.9003 8.03145 13.2511 8.03145ZM7.31342 7.44776C7.31342 7.76684 7.03108 8.03145 6.67174 8.03145C6.32095 8.03145 6.03005 7.76684 6.03005 7.44776V6.54499C6.03005 6.22591 6.32095 5.9613 6.67174 5.9613C7.03108 5.9613 7.31342 6.22591 7.31342 6.54499V7.44776Z" fill="#3749E9"/>
</svg>
