<svg width="16" height="16" viewBox="0 0 16 16" fill="none" xmlns="http://www.w3.org/2000/svg">
<mask id="mask0_1_29373" style="mask-type:luminance" maskUnits="userSpaceOnUse" x="0" y="0" width="15" height="15">
<path fill-rule="evenodd" clip-rule="evenodd" d="M1.33337 1.33398H14.1487V13.8664H1.33337V1.33398Z" fill="white" stroke="white"/>
</mask>
<g mask="url(#mask0_1_29373)">
<path fill-rule="evenodd" clip-rule="evenodd" d="M7.74134 2.29916C4.75214 2.29916 2.32024 4.6767 2.32024 7.59988C2.32024 10.5231 4.75214 12.9012 7.74134 12.9012C10.7299 12.9012 13.1618 10.5231 13.1618 7.59988C13.1618 4.6767 10.7299 2.29916 7.74134 2.29916ZM7.74133 13.8664C4.20797 13.8664 1.33325 11.0552 1.33325 7.59988C1.33325 4.14456 4.20797 1.33398 7.74133 1.33398C11.2747 1.33398 14.1488 4.14456 14.1488 7.59988C14.1488 11.0552 11.2747 13.8664 7.74133 13.8664Z" fill="#B9B8BB"/>
<path d="M7.74134 1.79916C4.48666 1.79916 1.82024 4.39001 1.82024 7.59988H2.82024C2.82024 4.96339 5.01761 2.79916 7.74134 2.79916V1.79916ZM1.82024 7.59988C1.82024 10.8097 4.48658 13.4012 7.74134 13.4012V12.4012C5.01769 12.4012 2.82024 10.2365 2.82024 7.59988H1.82024ZM7.74134 13.4012C10.9955 13.4012 13.6618 10.8096 13.6618 7.59988H12.6618C12.6618 10.2365 10.4643 12.4012 7.74134 12.4012V13.4012ZM13.6618 7.59988C13.6618 4.39005 10.9954 1.79916 7.74134 1.79916V2.79916C10.4644 2.79916 12.6618 4.96335 12.6618 7.59988H13.6618ZM7.74133 13.3664C4.47353 13.3664 1.83325 10.7686 1.83325 7.59988H0.833252C0.833252 11.3418 3.94242 14.3664 7.74133 14.3664V13.3664ZM1.83325 7.59988C1.83325 4.43124 4.47346 1.83398 7.74133 1.83398V0.833984C3.94248 0.833984 0.833252 3.85789 0.833252 7.59988H1.83325ZM7.74133 1.83398C11.0091 1.83398 13.6488 4.43118 13.6488 7.59988H14.6488C14.6488 3.85795 11.5402 0.833984 7.74133 0.833984V1.83398ZM13.6488 7.59988C13.6488 10.7686 11.0091 13.3664 7.74133 13.3664V14.3664C11.5403 14.3664 14.6488 11.3417 14.6488 7.59988H13.6488Z" fill="#B9B8BB"/>
</g>
<mask id="mask1_1_29373" style="mask-type:luminance" maskUnits="userSpaceOnUse" x="10" y="10" width="6" height="6">
<path fill-rule="evenodd" clip-rule="evenodd" d="M11.361 11.4414H14.6667V14.6681H11.361V11.4414Z" fill="white" stroke="white"/>
</mask>
<g mask="url(#mask1_1_29373)">
<path fill-rule="evenodd" clip-rule="evenodd" d="M14.1733 14.6681C14.0477 14.6681 13.9213 14.6212 13.8246 14.5272L11.5059 12.2661C11.3131 12.0776 11.3124 11.772 11.5052 11.5834C11.6974 11.3936 12.0099 11.3949 12.2033 11.5822L14.5221 13.8439C14.7149 14.0324 14.7155 14.3374 14.5227 14.5259C14.4267 14.6212 14.2997 14.6681 14.1733 14.6681Z" fill="#B9B8BB"/>
<path d="M14.1733 14.6681C14.0477 14.6681 13.9213 14.6212 13.8246 14.5272L11.5059 12.2661C11.3131 12.0776 11.3124 11.772 11.5052 11.5834C11.6974 11.3936 12.0099 11.3949 12.2033 11.5822L14.5221 13.8439C14.7149 14.0324 14.7155 14.3374 14.5227 14.5259C14.4267 14.6212 14.2997 14.6681 14.1733 14.6681" stroke="#B9B8BB"/>
</g>
</svg>
