<svg width="20" height="19" viewBox="0 0 20 19" fill="none" xmlns="http://www.w3.org/2000/svg">
<path fill-rule="evenodd" clip-rule="evenodd" d="M13.8757 5.0353H14.0554C16.4168 5.0353 18.3333 6.78637 18.3333 8.93435V13.2303C18.3333 15.3783 16.4168 17.1216 14.0554 17.1216H5.94452C3.58312 17.1216 1.66663 15.3783 1.66663 13.2303V8.93435C1.66663 6.78637 3.58312 5.0353 5.94452 5.0353H6.12419C6.1413 4.1014 6.54342 3.22976 7.27067 2.57603C8.00646 1.91451 8.9476 1.57987 10.0085 1.55652C12.1304 1.55652 13.8501 3.11302 13.8757 5.0353ZM8.16903 3.40876C7.68991 3.84458 7.42468 4.42048 7.40757 5.0353H12.5924C12.5667 3.75897 11.4202 2.7239 10.0085 2.7239C9.34973 2.7239 8.66527 2.96515 8.16903 3.40876ZM13.2511 8.03157C13.6105 8.03157 13.8928 7.76696 13.8928 7.44788V6.54511C13.8928 6.22603 13.6105 5.96142 13.2511 5.96142C12.9003 5.96142 12.6095 6.22603 12.6095 6.54511V7.44788C12.6095 7.76696 12.9003 8.03157 13.2511 8.03157ZM7.31342 7.44788C7.31342 7.76697 7.03108 8.03157 6.67174 8.03157C6.32095 8.03157 6.03005 7.76697 6.03005 7.44788V6.54511C6.03005 6.22603 6.32095 5.96142 6.67174 5.96142C7.03108 5.96142 7.31342 6.22603 7.31342 6.54511V7.44788Z" fill="white"/>
</svg>
