<svg width="24" height="24" viewBox="0 0 24 24" fill="none" xmlns="http://www.w3.org/2000/svg">
<path d="M1.00195 12.0641C1.00312 17.0138 4.58036 21.2282 9.43895 22.0039V14.9719H6.90195V12.0641H9.44195V9.85054C9.32841 8.80166 9.68447 7.75632 10.4136 6.99802C11.1427 6.23972 12.1693 5.84706 13.215 5.92653C13.9655 5.93873 14.7141 6.00599 15.455 6.12777V8.6019H14.191C13.7558 8.54456 13.3183 8.68916 13.0017 8.99498C12.6851 9.30079 12.5237 9.73472 12.563 10.1745V12.0641H15.334L14.891 14.9729H12.563V22.0039C17.8174 21.1684 21.502 16.34 20.9475 11.0168C20.3929 5.69348 15.7932 1.73884 10.4808 2.0178C5.16831 2.29675 1.0028 6.71165 1.00195 12.0641Z" fill="white"/>
</svg>
