<svg width="26" height="18" viewBox="0 0 26 18" fill="none" xmlns="http://www.w3.org/2000/svg">
<path fill-rule="evenodd" clip-rule="evenodd" d="M17.5635 4.85251H17.7433C20.1063 4.85251 21.552 6.54001 20.9729 8.61001L19.8147 12.75C19.2356 14.82 16.8477 16.5 14.4846 16.5H6.36806C4.00501 16.5 2.55718 14.82 3.1363 12.75L4.29455 8.61001C4.87367 6.54001 7.26362 4.85251 9.62668 4.85251H9.80648C10.0754 3.95251 10.7128 3.11251 11.6168 2.48251C12.5315 1.84502 13.5635 1.52252 14.6315 1.50002C16.7548 1.50002 18.056 3.00001 17.5635 4.85251ZM12.2913 3.28501C11.6943 3.70501 11.2736 4.26001 11.0908 4.85251H16.2792C16.5976 3.62251 15.7294 2.62501 14.3167 2.62501C13.6575 2.62501 12.9075 2.85751 12.2913 3.28501ZM16.1306 7.74001C16.4902 7.74001 16.8441 7.48501 16.9301 7.17751L17.1735 6.30751C17.2595 6.00001 17.0483 5.74501 16.6887 5.74501C16.3377 5.74501 15.9753 6.00001 15.8892 6.30751L15.6458 7.17751C15.5598 7.48501 15.7796 7.74001 16.1306 7.74001ZM10.3461 7.17751C10.2601 7.48501 9.90617 7.74001 9.54657 7.74001C9.19554 7.74001 8.97578 7.48501 9.06181 7.17751L9.30521 6.30751C9.39124 6.00001 9.75368 5.74501 10.1047 5.74501C10.4643 5.74501 10.6755 6.00001 10.5895 6.30751L10.3461 7.17751Z" fill="white"/>
</svg>
