<svg width="17" height="15" viewBox="0 0 17 15" fill="none" xmlns="http://www.w3.org/2000/svg">
<path d="M17.0001 6.34956V8.10058C17.0001 8.56808 16.6261 8.95059 16.1501 8.96759H14.4841C13.5661 8.96759 12.7246 8.29608 12.6481 7.37807C12.5971 6.84257 12.8011 6.34106 13.1581 5.99256C13.4726 5.66956 13.9061 5.48255 14.3821 5.48255H16.1501C16.6261 5.49955 17.0001 5.88206 17.0001 6.34956Z" fill="white"/>
<path d="M15.6997 10.2426H14.4841C12.8691 10.2426 11.5091 9.02709 11.3731 7.48007C11.2966 6.59606 11.6196 5.71206 12.2656 5.08305C12.8096 4.52204 13.5661 4.20754 14.3821 4.20754H15.6997C15.9462 4.20754 16.1502 4.00354 16.1247 3.75704C15.9377 1.69152 14.5691 0.280503 12.5376 0.0425004C12.3336 0.00850004 12.1211 0 11.9001 0H4.25004C4.01204 0 3.78254 0.0170001 3.56153 0.0510005C1.39401 0.323003 0 1.93802 0 4.25004V10.2001C0 12.5461 1.90402 14.4501 4.25004 14.4501H11.9001C14.2801 14.4501 15.9207 12.9626 16.1247 10.6931C16.1502 10.4466 15.9462 10.2426 15.6997 10.2426ZM9.35009 5.31255H4.25004C3.90154 5.31255 3.61254 5.02355 3.61254 4.67505C3.61254 4.32654 3.90154 4.03754 4.25004 4.03754H9.35009C9.6986 4.03754 9.9876 4.32654 9.9876 4.67505C9.9876 5.02355 9.6986 5.31255 9.35009 5.31255Z" fill="white"/>
</svg>
