<svg width="22" height="22" viewBox="0 0 22 22" fill="none" xmlns="http://www.w3.org/2000/svg">
<path fill-rule="evenodd" clip-rule="evenodd" d="M15.2521 5.65275C14.466 5.65275 13.8288 6.29113 13.8288 7.07865V8.21954H18.4545V12.5686H13.7576V14.4223C13.7576 17.848 10.9857 20.625 7.5663 20.625C4.14697 20.625 1.375 17.848 1.375 14.4223C1.375 10.9966 4.14697 8.21954 7.5663 8.21954H9.55893V7.07865C9.55893 3.92866 12.1078 1.375 15.2521 1.375H20.625V5.65275H15.2521ZM9.55859 8.25586V12.5694H13.7573V8.25586H9.55859ZM5.64453 14.423C5.64453 13.3598 6.50483 12.498 7.56596 12.498H9.48746V14.423C9.48746 15.4862 8.62717 16.348 7.56596 16.348C6.50483 16.348 5.64453 15.4862 5.64453 14.423Z" fill="#03DB80"/>
</svg>
