<svg width="20" height="20" viewBox="0 0 20 20" fill="none" xmlns="http://www.w3.org/2000/svg">
<path fill-rule="evenodd" clip-rule="evenodd" d="M6.94987 2.24231C7.88929 1.87268 8.99031 2.91651 9.99984 2.91651C11.0094 2.91651 12.1104 1.87267 13.0498 2.24231C13.1437 2.27926 13.2368 2.31787 13.329 2.3581C14.2539 2.76161 14.295 4.27725 15.0085 4.9908C15.7221 5.70438 17.2378 5.74531 17.6414 6.67025C17.6817 6.76261 17.7204 6.85583 17.7574 6.94989C18.127 7.88931 17.0832 8.99032 17.0832 9.99984C17.0832 11.0094 18.127 12.1104 17.7574 13.0498C17.7205 13.1436 17.6819 13.2366 17.6417 13.3287C17.2382 14.2537 15.7222 14.2947 15.0085 15.0083C14.2949 15.722 14.254 17.2381 13.3289 17.6416C13.2368 17.6818 13.1437 17.7204 13.0498 17.7574C12.1104 18.127 11.0094 17.0832 9.99986 17.0832C8.99033 17.0832 7.88932 18.127 6.94989 17.7574C6.85599 17.7204 6.76292 17.6818 6.67071 17.6416C5.7457 17.2381 5.70478 15.7221 4.99117 15.0085C4.27755 14.2949 2.76162 14.254 2.35808 13.329C2.31786 13.2368 2.27925 13.1437 2.24231 13.0498C1.87267 12.1104 2.91651 11.0094 2.91651 9.99984C2.91651 8.99032 1.87268 7.8893 2.24231 6.94988C2.27929 6.8559 2.31792 6.76276 2.35818 6.67049C2.76174 5.74551 4.27757 5.70458 4.99117 4.99098C5.70475 4.2774 5.74573 2.76162 6.67069 2.35809C6.7629 2.31787 6.85597 2.27926 6.94987 2.24231Z" fill="#3749E9"/>
<path fill-rule="evenodd" clip-rule="evenodd" d="M14.0096 7.6464C14.1102 7.74017 14.1666 7.86733 14.1666 7.99991C14.1666 8.1325 14.1102 8.25966 14.0096 8.35343L9.72009 12.3536C9.61954 12.4473 9.48318 12.5 9.341 12.5C9.19882 12.5 9.06247 12.4473 8.96191 12.3536L6.81714 10.3535C6.71947 10.2592 6.66542 10.1329 6.66665 10.0018C6.66787 9.8707 6.72426 9.74528 6.82367 9.65258C6.92309 9.55987 7.05757 9.50728 7.19816 9.50614C7.33875 9.505 7.47419 9.5554 7.57532 9.64649L9.341 11.2931L13.2515 7.6464C13.352 7.55266 13.4884 7.5 13.6305 7.5C13.7727 7.5 13.9091 7.55266 14.0096 7.6464Z" fill="white"/>
</svg>
