<svg width="24" height="23" viewBox="0 0 24 23" fill="none" xmlns="http://www.w3.org/2000/svg">
<path d="M10.959 1.33685C11.4273 0.558759 12.5553 0.558759 13.0236 1.33685L15.9693 6.23153C16.1375 6.51106 16.4119 6.71042 16.7297 6.78403L22.2951 8.07298C23.1798 8.27788 23.5284 9.35073 22.9331 10.0365L19.1882 14.3505C18.9743 14.5969 18.8695 14.9195 18.8977 15.2445L19.3917 20.9358C19.4702 21.8405 18.5576 22.5036 17.7214 22.1493L12.4613 19.9209C12.1609 19.7936 11.8217 19.7936 11.5213 19.9209L6.2612 22.1493C5.42502 22.5036 4.51241 21.8405 4.59092 20.9358L5.08485 15.2445C5.11306 14.9195 5.00825 14.5969 4.79439 14.3505L1.04953 10.0365C0.454223 9.35073 0.802812 8.27788 1.68752 8.07298L7.2529 6.78403C7.57073 6.71042 7.84512 6.51106 8.01335 6.23153L10.959 1.33685Z" fill="white" stroke="white" stroke-width="1.5"/>
</svg>
