<svg width="24" height="24" viewBox="0 0 24 24" fill="none" xmlns="http://www.w3.org/2000/svg">
<path d="M17.2922 9.30807C17.1997 9.21537 17.0898 9.14182 16.9688 9.09164C16.8478 9.04146 16.7181 9.01562 16.5872 9.01562C16.4562 9.01562 16.3265 9.04146 16.2056 9.09164C16.0846 9.14182 15.9747 9.21537 15.8822 9.30807L12.0022 13.1881L8.12218 9.30807C7.9352 9.12109 7.6816 9.01605 7.41718 9.01605C7.15275 9.01605 6.89915 9.12109 6.71218 9.30807C6.5252 9.49505 6.42016 9.74864 6.42016 10.0131C6.42016 10.2775 6.5252 10.5311 6.71218 10.7181L11.3022 15.3081C11.3947 15.4008 11.5046 15.4743 11.6256 15.5245C11.7465 15.5747 11.8762 15.6005 12.0072 15.6005C12.1381 15.6005 12.2678 15.5747 12.3888 15.5245C12.5098 15.4743 12.6197 15.4008 12.7122 15.3081L17.3022 10.7181C17.6822 10.3381 17.6822 9.69807 17.2922 9.30807Z" fill="#191820"/>
</svg>
