<svg width="26" height="19" viewBox="0 0 26 19" fill="none" xmlns="http://www.w3.org/2000/svg">
<path fill-rule="evenodd" clip-rule="evenodd" d="M15.6828 5.14116L15.8676 5.13648C18.2956 5.07507 20.7583 6.75772 21.362 8.88291L22.5695 13.1333C23.1732 15.2585 21.6926 17.0331 19.2646 17.0945L10.9249 17.3055C8.49688 17.3669 6.03634 15.6919 5.43261 13.5667L4.22516 9.31634C3.62144 7.19115 5.09983 5.40882 7.52785 5.34741L7.71259 5.34274C7.46769 4.4183 7.63617 3.54545 8.20019 2.87974C8.77081 2.2061 9.64444 1.85053 10.7287 1.79984C12.9104 1.74466 15.1161 3.23993 15.6828 5.14116ZM9.35795 3.68027C8.98781 4.12393 8.87696 4.70062 9.03217 5.30936L14.3633 5.17453C13.9781 3.9124 12.5084 2.91812 11.0568 2.95483C10.3795 2.97197 9.74351 3.22847 9.35795 3.68027ZM15.8827 8.12188C16.2522 8.11254 16.4682 7.84339 16.3785 7.5277L16.1247 6.6345C16.0351 6.3188 15.6704 6.06435 15.3009 6.07369C14.9402 6.08282 14.7155 6.35218 14.8052 6.66788L15.0589 7.56107C15.1486 7.87677 15.5221 8.131 15.8827 8.12188ZM9.61347 7.6988C9.70315 8.0145 9.48722 8.28364 9.11774 8.29298C8.75705 8.30211 8.38358 8.04787 8.29389 7.73217L8.04015 6.83898C7.95047 6.52328 8.1752 6.25392 8.53589 6.24479C8.90537 6.23545 9.27004 6.48991 9.35973 6.8056L9.61347 7.6988Z" fill="white"/>
</svg>
