<svg width="80" height="80" viewBox="0 0 80 80" fill="none" xmlns="http://www.w3.org/2000/svg">
<path d="M16.3777 24.3049C29.4239 11.4531 50.5761 11.4531 63.6224 24.3049L65.1926 25.8516C65.8449 26.4942 65.8449 27.5361 65.1926 28.1787L59.8214 33.4697C59.4953 33.791 58.9665 33.791 58.6403 33.4697L56.4796 31.3412C47.3782 22.3755 32.6219 22.3755 23.5205 31.3412L21.2065 33.6207C20.8804 33.942 20.3516 33.942 20.0254 33.6207L14.6543 28.3296C14.002 27.687 14.002 26.6452 14.6543 26.0026L16.3777 24.3049ZM74.7304 35.2474L79.5108 39.9565C80.1631 40.5991 80.1631 41.6409 79.5108 42.2835L57.956 63.5174C57.3037 64.16 56.246 64.16 55.5937 63.5174C55.5937 63.5174 55.5937 63.5174 55.5937 63.5174L40.2954 48.4471C40.1323 48.2865 39.8679 48.2865 39.7049 48.4471C39.7049 48.4471 39.7049 48.4471 39.7049 48.4471L24.4069 63.5174C23.7546 64.16 22.697 64.16 22.0447 63.5174C22.0447 63.5174 22.0446 63.5174 22.0446 63.5174L0.489235 42.2832C-0.163078 41.6407 -0.163078 40.5988 0.489235 39.9562L5.26957 35.2471C5.92188 34.6045 6.97949 34.6045 7.63181 35.2471L22.9303 50.3176C23.0934 50.4783 23.3578 50.4783 23.5209 50.3176C23.5209 50.3176 23.5209 50.3176 23.5209 50.3176L38.8186 35.2471C39.4709 34.6045 40.5285 34.6045 41.1809 35.2471C41.1809 35.2471 41.1809 35.2471 41.1809 35.2471L56.4794 50.3176C56.6425 50.4783 56.9069 50.4783 57.07 50.3176L72.3682 35.2474C73.0205 34.6048 74.0781 34.6048 74.7304 35.2474Z" fill="#3B99FC"/>
</svg>
