<svg width="20" height="20" viewBox="0 0 20 20" fill="none" xmlns="http://www.w3.org/2000/svg">
<path fill-rule="evenodd" clip-rule="evenodd" d="M5.83329 1.0415C3.18693 1.0415 1.04163 3.18681 1.04163 5.83317V14.1665C1.04163 16.8129 3.18693 18.9582 5.83329 18.9582H14.1666C16.813 18.9582 18.9583 16.8129 18.9583 14.1665V5.83317C18.9583 3.18681 16.813 1.0415 14.1666 1.0415H5.83329ZM13.25 9.99984C13.25 10.4141 12.9142 10.7498 12.5 10.7498H10.75V12.4998C10.75 12.9141 10.4142 13.2498 9.99996 13.2498C9.58575 13.2498 9.24996 12.9141 9.24996 12.4998V10.7498H7.49996C7.08575 10.7498 6.74996 10.4141 6.74996 9.99984C6.74996 9.58562 7.08575 9.24984 7.49996 9.24984H9.24996V7.49984C9.24996 7.08562 9.58574 6.74984 9.99996 6.74984C10.4142 6.74984 10.75 7.08562 10.75 7.49984V9.24984H12.5C12.9142 9.24984 13.25 9.58562 13.25 9.99984Z" fill="white"/>
</svg>
