<svg width="80" height="80" viewBox="0 0 80 80" fill="none" xmlns="http://www.w3.org/2000/svg">
<path fill-rule="evenodd" clip-rule="evenodd" d="M24.625 66.4424L33.986 68.926V65.6782L34.7502 64.9141H40.0992V68.7348V71.4093H34.3681L27.2995 68.3527L24.625 66.4424Z" fill="#CDBDB2"/>
<path fill-rule="evenodd" clip-rule="evenodd" d="M55.1973 66.4424L46.0275 68.926V65.6782L45.2633 64.9141H39.9142V68.7348V71.4093H45.6454L52.7136 68.3527L55.1973 66.4424Z" fill="#CDBDB2"/>
<path fill-rule="evenodd" clip-rule="evenodd" d="M34.7642 59.3733L34 65.6774L34.955 64.9132H44.889L46.0352 65.6774L45.271 59.3733L43.7427 58.418L36.1012 58.6092L34.7642 59.3733Z" fill="#393939"/>
<path fill-rule="evenodd" clip-rule="evenodd" d="M29.5977 16.7676L34.1826 27.4657L36.2841 58.605H43.7345L46.0269 27.4657L50.2297 16.7676H29.5977Z" fill="#F89C35"/>
<path fill-rule="evenodd" clip-rule="evenodd" d="M9.54437 40.2721L4.19531 55.746L17.568 54.9819H26.1645V48.2957L25.7824 34.541L23.872 36.0693L9.54437 40.2721Z" fill="#F89D35"/>
<path fill-rule="evenodd" clip-rule="evenodd" d="M19.668 41.9902L35.3331 42.3723L33.6139 50.3959L26.1632 48.4855L19.668 41.9902Z" fill="#D87C30"/>
<path fill-rule="evenodd" clip-rule="evenodd" d="M19.668 42.1777L26.1633 48.2909V54.4041L19.668 42.1777Z" fill="#EA8D3A"/>
<path fill-rule="evenodd" clip-rule="evenodd" d="M26.1582 48.4805L33.7997 50.3908L36.2834 58.6056L34.5639 59.5607L26.1582 54.5937V48.4805Z" fill="#F89D35"/>
<path fill-rule="evenodd" clip-rule="evenodd" d="M26.1533 54.5938L24.625 66.4381L34.7502 59.3699L26.1533 54.5938Z" fill="#EB8F35"/>
<path fill-rule="evenodd" clip-rule="evenodd" d="M35.3225 42.3652L36.2778 58.6036L33.4121 50.2934L35.3225 42.3652Z" fill="#EA8E3A"/>
<path fill-rule="evenodd" clip-rule="evenodd" d="M17.3711 54.785L26.1588 54.5938L24.6305 66.4381L17.3711 54.785Z" fill="#D87C30"/>
<path fill-rule="evenodd" clip-rule="evenodd" d="M8.39814 71.6023L24.6362 66.4441L17.3767 54.791L4.19531 55.746L8.39814 71.6023Z" fill="#EB8F35"/>
<path fill-rule="evenodd" clip-rule="evenodd" d="M34.1868 27.4727L25.9724 34.35L19.668 41.9915L35.3331 42.5648L34.1868 27.4727Z" fill="#E8821E"/>
<path fill-rule="evenodd" clip-rule="evenodd" d="M24.625 66.4393L34.7502 59.3711L33.986 65.4843V68.923L27.1087 67.5855L24.625 66.4393Z" fill="#DFCEC3"/>
<path fill-rule="evenodd" clip-rule="evenodd" d="M55.1973 66.4393L45.2633 59.3711L46.0275 65.4843V68.923L52.9048 67.5855L55.1973 66.4393Z" fill="#DFCEC3"/>
<path fill-rule="evenodd" clip-rule="evenodd" d="M31.1328 45.8066L33.2344 50.2007L25.7837 48.2903L31.1328 45.8066Z" fill="#393939"/>
<path fill-rule="evenodd" clip-rule="evenodd" d="M8.20703 7.79297L34.1882 27.4697L29.7945 16.7716L8.20703 7.79297Z" fill="#E88F35"/>
<path fill-rule="evenodd" clip-rule="evenodd" d="M8.2043 7.79297L4.76562 18.3L6.676 29.7623L5.33874 30.5264L7.24911 32.2458L5.72081 33.583L7.82223 35.4934L6.48496 36.6397L9.54157 40.4604L23.8694 36.0665C30.8741 30.4628 34.3128 27.5972 34.1854 27.4698C34.0581 27.3425 25.3977 20.7835 8.2043 7.79297Z" fill="#8E5A30"/>
<path fill-rule="evenodd" clip-rule="evenodd" d="M70.2935 40.2702L75.6426 55.7441L62.2699 54.9799H53.6734V48.2938L54.0555 34.5391L55.9659 36.0674L70.2935 40.2702Z" fill="#F89D35"/>
<path fill-rule="evenodd" clip-rule="evenodd" d="M60.1699 41.9902L44.5048 42.3723L46.224 50.3959L53.6746 48.4855L60.1699 41.9902Z" fill="#D87C30"/>
<path fill-rule="evenodd" clip-rule="evenodd" d="M60.1699 42.1777L53.6746 48.2909V54.4041L60.1699 42.1777Z" fill="#EA8D3A"/>
<path fill-rule="evenodd" clip-rule="evenodd" d="M53.6816 48.4785L46.0402 50.3889L43.5565 58.6037L45.276 59.5587L53.6816 54.5917V48.4785Z" fill="#F89D35"/>
<path fill-rule="evenodd" clip-rule="evenodd" d="M53.667 54.5918L55.1953 66.4362L45.2613 59.5588L53.667 54.5918Z" fill="#EB8F35"/>
<path fill-rule="evenodd" clip-rule="evenodd" d="M44.4978 42.3691L43.5425 58.6075L46.4082 50.2973L44.4978 42.3691Z" fill="#EA8E3A"/>
<path fill-rule="evenodd" clip-rule="evenodd" d="M62.4609 54.783L53.6732 54.5918L55.2015 66.4362L62.4609 54.783Z" fill="#D87C30"/>
<path fill-rule="evenodd" clip-rule="evenodd" d="M71.4397 71.6004L55.2017 66.4422L62.4611 54.7891L75.6426 55.7441L71.4397 71.6004Z" fill="#EB8F35"/>
<path fill-rule="evenodd" clip-rule="evenodd" d="M45.651 27.4707L53.8655 34.3481L60.1699 41.9896L44.5048 42.5628L45.651 27.4707Z" fill="#E8821E"/>
<path fill-rule="evenodd" clip-rule="evenodd" d="M48.7071 45.8047L46.6055 50.1987L54.0561 48.2883L48.7071 45.8047Z" fill="#393939"/>
<path fill-rule="evenodd" clip-rule="evenodd" d="M71.6309 7.79102L45.6497 27.4677L50.0434 16.7696L71.6309 7.79102Z" fill="#E88F35"/>
<path fill-rule="evenodd" clip-rule="evenodd" d="M71.6316 7.79102L75.0703 18.2981L73.1599 29.7604L74.4972 30.5245L72.5868 32.2439L74.1151 33.5811L72.0137 35.4915L73.351 36.6377L70.2944 40.4585L55.9666 36.0646C48.9618 30.4608 45.5232 27.5953 45.6505 27.4679C45.7779 27.3406 54.4383 20.7816 71.6316 7.79102Z" fill="#8E5A30"/>
</svg>
