<svg width="1514" height="40" viewBox="0 0 1514 40" fill="none" xmlns="http://www.w3.org/2000/svg">
<g filter="url(#filter0_d_1_40330)">
<rect x="1514" y="40" width="40" height="40" rx="20" transform="rotate(-180 1514 40)" fill="white"/>
<rect x="1514" y="40" width="40" height="40" rx="20" transform="rotate(-180 1514 40)" stroke="#28303F"/>
</g>
<path d="M1491.4 14.7227L1497.55 20.1469C1498 20.545 1498 21.2487 1497.55 21.6468L1491.4 27.071" stroke="#565660" stroke-width="1.5" stroke-linecap="round"/>
<g filter="url(#filter1_d_1_40330)">
<rect width="40" height="40" rx="20" transform="matrix(1 0 0 -1 0 40)" fill="#1F1F2C"/>
<rect width="40" height="40" rx="20" transform="matrix(1 0 0 -1 0 40)" stroke="#28303F"/>
</g>
<path d="M22.5996 14.7227L16.4499 20.1469C15.9985 20.545 15.9985 21.2487 16.4499 21.6468L22.5996 27.071" stroke="white" stroke-width="1.5" stroke-linecap="round"/>
<defs>
<filter id="filter0_d_1_40330" x="1443.5" y="-30.5" width="101" height="101" filterUnits="userSpaceOnUse" color-interpolation-filters="sRGB">
<feFlood flood-opacity="0" result="BackgroundImageFix"/>
<feColorMatrix in="SourceAlpha" type="matrix" values="0 0 0 0 0 0 0 0 0 0 0 0 0 0 0 0 0 0 127 0" result="hardAlpha"/>
<feOffset/>
<feGaussianBlur stdDeviation="15"/>
<feComposite in2="hardAlpha" operator="out"/>
<feColorMatrix type="matrix" values="0 0 0 0 0 0 0 0 0 0 0 0 0 0 0 0 0 0 0.08 0"/>
<feBlend mode="normal" in2="BackgroundImageFix" result="effect1_dropShadow_1_40330"/>
<feBlend mode="normal" in="SourceGraphic" in2="effect1_dropShadow_1_40330" result="shape"/>
</filter>
<filter id="filter1_d_1_40330" x="-30.5" y="-30.5" width="101" height="101" filterUnits="userSpaceOnUse" color-interpolation-filters="sRGB">
<feFlood flood-opacity="0" result="BackgroundImageFix"/>
<feColorMatrix in="SourceAlpha" type="matrix" values="0 0 0 0 0 0 0 0 0 0 0 0 0 0 0 0 0 0 127 0" result="hardAlpha"/>
<feOffset/>
<feGaussianBlur stdDeviation="15"/>
<feComposite in2="hardAlpha" operator="out"/>
<feColorMatrix type="matrix" values="0 0 0 0 0 0 0 0 0 0 0 0 0 0 0 0 0 0 0.08 0"/>
<feBlend mode="normal" in2="BackgroundImageFix" result="effect1_dropShadow_1_40330"/>
<feBlend mode="normal" in="SourceGraphic" in2="effect1_dropShadow_1_40330" result="shape"/>
</filter>
</defs>
</svg>
