<svg width="17" height="18" viewBox="0 0 17 18" fill="none" xmlns="http://www.w3.org/2000/svg">
<path d="M13.2238 4.91156C13.1642 4.90305 13.1046 4.90305 13.045 4.91156C11.7256 4.869 10.6786 3.78795 10.6786 2.46004C10.6786 1.10659 11.7767 0 13.1386 0C14.4921 0 15.5987 1.09808 15.5987 2.46004C15.5902 3.78795 14.5432 4.869 13.2238 4.91156Z" fill="white"/>
<path d="M15.9988 10.8106C15.0454 11.449 13.709 11.6873 12.4747 11.5256C12.7982 10.8276 12.9684 10.053 12.9769 9.23579C12.9769 8.38457 12.7896 7.5759 12.4321 6.86939C13.6919 6.69914 15.0284 6.93749 15.9902 7.5759C17.3352 8.46118 17.3352 9.91677 15.9988 10.8106Z" fill="white"/>
<path d="M3.7837 4.91156C3.84329 4.90305 3.90287 4.90305 3.96246 4.91156C5.28186 4.869 6.32886 3.78795 6.32886 2.46004C6.32886 1.09808 5.23078 0 3.86883 0C2.51538 0 1.4173 1.09808 1.4173 2.46004C1.4173 3.78795 2.46431 4.869 3.7837 4.91156Z" fill="white"/>
<path d="M3.87733 9.23496C3.87733 10.0606 4.05608 10.8438 4.37955 11.5503C3.17932 11.678 1.92802 11.4226 1.0087 10.8182C-0.336233 9.92445 -0.336233 8.46885 1.0087 7.57507C1.91951 6.96219 3.20486 6.71533 4.4136 6.85153C4.06459 7.56656 3.87733 8.37522 3.87733 9.23496Z" fill="white"/>
<path d="M8.61867 11.8061C8.55057 11.7976 8.47396 11.7976 8.39735 11.8061C6.8311 11.7551 5.5798 10.4697 5.5798 8.88645C5.58831 7.26912 6.89068 5.95824 8.51652 5.95824C10.1338 5.95824 11.4447 7.26912 11.4447 8.88645C11.4362 10.4697 10.1934 11.7551 8.61867 11.8061Z" fill="white"/>
<path d="M5.85221 13.5684C4.56686 14.4281 4.56686 15.8411 5.85221 16.6924C7.31632 17.6713 9.71677 17.6713 11.1809 16.6924C12.4662 15.8326 12.4662 14.4196 11.1809 13.5684C9.72528 12.5895 7.32483 12.5895 5.85221 13.5684Z" fill="white"/>
</svg>
