<svg width="20" height="20" viewBox="0 0 20 20" fill="none" xmlns="http://www.w3.org/2000/svg">
<g clip-path="url(#clip0_0_105)">
<path d="M0.774414 18.333C0.774414 18.7932 1.14714 19.1664 1.60775 19.1664C2.06836 19.1664 2.44108 18.7932 2.44108 18.333C2.44108 15.3923 4.134 12.7889 6.7728 11.5578C7.68604 12.1513 8.77247 12.4997 9.94027 12.4997C11.1125 12.4997 12.2031 12.1489 13.1185 11.5513C13.9062 11.9232 14.6363 12.4235 15.2438 13.0307C16.6607 14.4479 17.4411 16.3311 17.4411 18.333C17.4411 18.7932 17.8138 19.1664 18.2744 19.1664C18.735 19.1664 19.1078 18.7932 19.1078 18.333C19.1078 15.8859 18.154 13.5845 16.4222 11.8523C15.8427 11.2725 15.1693 10.7754 14.4467 10.3655C15.2752 9.3581 15.7736 8.06944 15.7736 6.66635C15.7736 3.44979 13.1564 0.833008 9.94027 0.833008C6.72413 0.833008 4.10694 3.44979 4.10694 6.66635C4.10694 8.06604 4.60331 9.35154 5.42814 10.3579C2.56748 11.9685 0.774414 14.9779 0.774414 18.333ZM9.94027 2.49968C12.2376 2.49968 14.1069 4.36898 14.1069 6.66635C14.1069 8.96371 12.2376 10.833 9.94027 10.833C7.64291 10.833 5.7736 8.96371 5.7736 6.66635C5.7736 4.36898 7.64291 2.49968 9.94027 2.49968Z" fill="white"/>
</g>
<defs>
<clipPath id="clip0_0_105">
<rect width="20" height="20" fill="white"/>
</clipPath>
</defs>
</svg>
