<svg width="19" height="16" viewBox="0 0 19 16" fill="none" xmlns="http://www.w3.org/2000/svg">
<path d="M10.1273 5.44636H5.02101" stroke="#B9B8BB" stroke-width="1.5" stroke-linecap="round" stroke-linejoin="round"/>
<path d="M17.7868 7.12322V8.87643C17.7868 9.3445 17.4123 9.72744 16.9358 9.74446H15.2677C14.3486 9.74446 13.506 9.07214 13.4294 8.15301C13.3784 7.61685 13.5826 7.11473 13.9401 6.7658C14.2549 6.4424 14.689 6.25519 15.1656 6.25519H16.9358C17.4123 6.27221 17.7868 6.65515 17.7868 7.12322Z" stroke="#B9B8BB" stroke-width="1.5" stroke-linecap="round" stroke-linejoin="round"/>
<path d="M13.9401 6.76581C13.5827 7.11474 13.3784 7.61686 13.4295 8.15302C13.5061 9.07215 14.3486 9.74447 15.2677 9.74447H16.9358V10.9785C16.9358 13.5316 15.2337 15.2337 12.6806 15.2337H5.02117C2.46803 15.2337 0.765942 13.5316 0.765942 10.9785V5.02117C0.765942 2.70633 2.16166 1.08934 4.33183 0.817002C4.5531 0.78296 4.78288 0.765942 5.02117 0.765942H12.6806C12.9019 0.765942 13.1146 0.774442 13.3189 0.808483C15.5146 1.0638 16.9358 2.68931 16.9358 5.02117V6.2552H15.1656C14.689 6.2552 14.255 6.44241 13.9401 6.76581Z" stroke="#B9B8BB" stroke-width="1.5" stroke-linecap="round" stroke-linejoin="round"/>
</svg>
