<svg width="15" height="17" viewBox="0 0 15 17" fill="none" xmlns="http://www.w3.org/2000/svg">
<path d="M10.447 0H4.01545C0.799687 0 0 0.859238 0 4.28769V13.8669C0 16.1299 1.24207 16.6658 2.74786 15.0494L2.75637 15.0409C3.45397 14.3008 4.51738 14.3603 5.1214 15.1685L5.98064 16.317C6.66973 17.2273 7.78419 17.2273 8.47328 16.317L9.33252 15.1685C9.94505 14.3518 11.0085 14.2923 11.7061 15.0409C13.2204 16.6573 14.4539 16.1214 14.4539 13.8584V4.28769C14.4624 0.859238 13.6627 0 10.447 0ZM9.57072 7.4439H4.8917C4.5429 7.4439 4.25366 7.15465 4.25366 6.80585C4.25366 6.45705 4.5429 6.1678 4.8917 6.1678H9.57072C9.91952 6.1678 10.2088 6.45705 10.2088 6.80585C10.2088 7.15465 9.91952 7.4439 9.57072 7.4439Z" fill="white"/>
</svg>
