<svg width="20" height="20" viewBox="0 0 20 20" fill="none" xmlns="http://www.w3.org/2000/svg">
<path d="M17.9166 14.7002V15.1252C17.9166 15.7419 17.7083 16.3336 17.325 16.8086C17.1833 16.9919 16.95 17.0837 16.7083 17.0837H14.475C14.8166 16.492 15 15.8169 15 15.1252V14.7002C15 13.5002 14.5583 12.3921 13.8083 11.5504C13.8667 11.5337 13.9167 11.5003 13.9667 11.4753C14.35 11.2587 14.825 11.192 15.275 11.3004C16.825 11.692 17.9166 13.0836 17.9166 14.7002ZM12.0833 2.91699C11.8166 2.91699 11.5583 2.94207 11.3083 3.00041C12.3 3.90874 12.9166 5.21699 12.9166 6.66699C12.9166 8.11699 12.3 9.42525 11.3083 10.3336C11.5583 10.3919 11.8166 10.417 12.0833 10.417C14.15 10.417 15.8333 8.73366 15.8333 6.66699C15.8333 4.60033 14.15 2.91699 12.0833 2.91699ZM7.91665 2.91699C5.84998 2.91699 4.16665 4.60033 4.16665 6.66699C4.16665 8.73366 5.84998 10.417 7.91665 10.417C9.98331 10.417 11.6666 8.73366 11.6666 6.66699C11.6666 4.60033 9.98331 2.91699 7.91665 2.91699ZM11.1083 11.3004C10.9583 11.267 10.8166 11.2503 10.6666 11.2503C10.3583 11.2503 10.0583 11.3253 9.79999 11.4753C9.21665 11.792 8.56665 11.9504 7.91665 11.9504C7.26665 11.9504 6.62499 11.792 6.04999 11.4837C5.77499 11.3337 5.46665 11.2503 5.15832 11.2503C5.02498 11.2503 4.89996 11.267 4.77496 11.292C3.19163 11.6587 2.08331 13.0669 2.08331 14.7002V15.1252C2.08331 15.7419 2.29166 16.3336 2.675 16.8086C2.81666 16.9919 3.04999 17.0837 3.29166 17.0837H12.5416C12.7833 17.0837 13.0166 16.9919 13.1583 16.8086C13.5416 16.3336 13.75 15.7419 13.75 15.1252V14.7002C13.75 13.0836 12.6583 11.692 11.1083 11.3004Z" fill="white"/>
</svg>
