<svg width="14" height="4" viewBox="0 0 14 4" fill="none" xmlns="http://www.w3.org/2000/svg">
<path d="M1.76023 0C0.818713 0 0 0.818713 0 1.76023C0 2.70175 0.818713 3.52047 1.76023 3.52047C2.70175 3.52047 3.52047 2.70175 3.52047 1.76023C3.52047 0.818713 2.70175 0 1.76023 0ZM12.2398 0C11.2982 0 10.4795 0.818713 10.4795 1.76023C10.4795 2.70175 11.2982 3.52047 12.2398 3.52047C13.1813 3.52047 14 2.70175 14 1.76023C14 0.818713 13.1813 0 12.2398 0ZM7 0C6.05848 0 5.23977 0.818713 5.23977 1.76023C5.23977 2.70175 6.05848 3.52047 7 3.52047C7.94152 3.52047 8.76023 2.70175 8.76023 1.76023C8.76023 0.818713 7.94152 0 7 0Z" fill="#B9B8BB"/>
</svg>
