<svg width="20" height="20" viewBox="0 0 20 20" fill="none" xmlns="http://www.w3.org/2000/svg">
<mask id="mask0_0_1932" style="mask-type:luminance" maskUnits="userSpaceOnUse" x="1" y="1" width="18" height="17">
<path fill-rule="evenodd" clip-rule="evenodd" d="M1.66675 1.66602H17.686V17.3316H1.66675V1.66602Z" fill="white" stroke="white"/>
</mask>
<g mask="url(#mask0_0_1932)">
<path fill-rule="evenodd" clip-rule="evenodd" d="M9.67662 2.87248C5.94011 2.87248 2.90023 5.84441 2.90023 9.49839C2.90023 13.1524 5.94011 16.1251 9.67662 16.1251C13.4123 16.1251 16.4522 13.1524 16.4522 9.49839C16.4522 5.84441 13.4123 2.87248 9.67662 2.87248ZM9.6766 17.3316C5.2599 17.3316 1.6665 13.8175 1.6665 9.49838C1.6665 5.17924 5.2599 1.66602 9.6766 1.66602C14.0933 1.66602 17.6859 5.17924 17.6859 9.49838C17.6859 13.8175 14.0933 17.3316 9.6766 17.3316Z" fill="#B9B8BB"/>
<path d="M9.67662 2.37248C5.67463 2.37248 2.40023 5.55772 2.40023 9.49839H3.40023C3.40023 6.1311 6.20558 3.37248 9.67662 3.37248V2.37248ZM2.40023 9.49839C2.40023 13.439 5.67455 16.6251 9.67662 16.6251V15.6251C6.20566 15.6251 3.40023 12.8658 3.40023 9.49839H2.40023ZM9.67662 16.6251C13.6779 16.6251 16.9522 13.4389 16.9522 9.49839H15.9522C15.9522 12.8658 13.1467 15.6251 9.67662 15.6251V16.6251ZM16.9522 9.49839C16.9522 5.55776 13.6778 2.37248 9.67662 2.37248V3.37248C13.1468 3.37248 15.9522 6.13106 15.9522 9.49839H16.9522ZM9.6766 16.8316C5.52546 16.8316 2.1665 13.5309 2.1665 9.49838H1.1665C1.1665 14.1041 4.99435 17.8316 9.6766 17.8316V16.8316ZM2.1665 9.49838C2.1665 5.46592 5.52539 2.16602 9.6766 2.16602V1.16602C4.99442 1.16602 1.1665 4.89256 1.1665 9.49838H2.1665ZM9.6766 2.16602C13.8277 2.16602 17.1859 5.46585 17.1859 9.49838H18.1859C18.1859 4.89263 14.3589 1.16602 9.6766 1.16602V2.16602ZM17.1859 9.49838C17.1859 13.531 13.8277 16.8316 9.6766 16.8316V17.8316C14.3589 17.8316 18.1859 14.1041 18.1859 9.49838H17.1859Z" fill="#B9B8BB"/>
</g>
<mask id="mask1_0_1932" style="mask-type:luminance" maskUnits="userSpaceOnUse" x="13" y="13" width="6" height="6">
<path fill-rule="evenodd" clip-rule="evenodd" d="M14.2012 14.2988H18.3333V18.3322H14.2012V14.2988Z" fill="white" stroke="white"/>
</mask>
<g mask="url(#mask1_0_1932)">
<path fill-rule="evenodd" clip-rule="evenodd" d="M17.7166 18.3322C17.5596 18.3322 17.4016 18.2735 17.2807 18.1561L14.3823 15.3298C14.1413 15.0941 14.1405 14.712 14.3815 14.4764C14.6217 14.2391 15.0123 14.2407 15.2541 14.4748L18.1526 17.3019C18.3935 17.5376 18.3944 17.9188 18.1534 18.1545C18.0333 18.2735 17.8746 18.3322 17.7166 18.3322Z" fill="#B9B8BB"/>
<path d="M17.7166 18.3322C17.5595 18.3322 17.4016 18.2735 17.2807 18.1561L14.3823 15.3298C14.1413 15.0941 14.1405 14.712 14.3815 14.4764C14.6217 14.2391 15.0123 14.2407 15.2541 14.4748L18.1526 17.3019C18.3935 17.5376 18.3944 17.9188 18.1534 18.1545C18.0333 18.2735 17.8746 18.3322 17.7166 18.3322" stroke="#B9B8BB"/>
</g>
</svg>
