<svg width="20" height="20" viewBox="0 0 20 20" fill="none" xmlns="http://www.w3.org/2000/svg">
<path d="M17.1154 1.73047H2.88461C1.29402 1.73047 0 3.02449 0 4.61508V15.3843C0 16.9749 1.29402 18.2689 2.88461 18.2689H17.1154C18.706 18.2689 20 16.9749 20 15.3843V4.61508C20 3.02449 18.706 1.73047 17.1154 1.73047ZM18.7529 11.6035H14.6154C13.6611 11.6035 13 10.9541 13 9.99969C13 9.04532 13.661 8.34544 14.6154 8.34544H18.7529V11.6035ZM18.7529 7.11508H14.6154C13.0248 7.11508 11.7308 8.40911 11.7308 9.99969C11.7308 11.5903 13.0248 12.8843 14.6154 12.8843H18.7529V15.3843C18.7529 16.3386 18.0698 16.9996 17.1154 16.9996H2.88461C1.93027 16.9996 1.29231 16.3387 1.29231 15.3843V4.61508C1.29231 3.66074 1.93023 2.99963 2.88461 2.99963H17.1266C18.0809 2.99963 18.7529 3.6607 18.7529 4.61508V7.11508Z" fill="white"/>
<path d="M15.3842 9.42285H14.615C14.2964 9.42285 14.0381 9.68117 14.0381 9.99977C14.0381 10.3184 14.2964 10.5767 14.615 10.5767H15.3842C15.7029 10.5767 15.9611 10.3184 15.9611 9.99977C15.9611 9.68113 15.7029 9.42285 15.3842 9.42285Z" fill="white"/>
</svg>
