<svg width="88" height="40" viewBox="0 0 88 40" fill="none" xmlns="http://www.w3.org/2000/svg">
<rect x="48.5" y="0.5" width="39" height="39" rx="11.5" fill="#1F1F2C" stroke="#565660"/>
<path d="M62.4988 11H60.5012C59.6738 11 59 11.6741 59 12.5012V14.4994C59 15.3318 59.6738 16 60.5012 16H62.4988C63.3322 16 64 15.3318 64 14.4994V12.5012C64 11.6741 63.3322 11 62.4988 11Z" fill="white"/>
<path d="M62.4988 17.5H60.5012C59.6738 17.5 59 18.1741 59 19.0012V20.9994C59 21.8318 59.6738 22.5 60.5012 22.5H62.4988C63.3322 22.5 64 21.8318 64 20.9994V19.0012C64 18.1741 63.3322 17.5 62.4988 17.5Z" fill="white"/>
<path d="M62.4988 24H60.5012C59.6738 24 59 24.6741 59 25.5012V27.4994C59 28.3318 59.6738 29 60.5012 29H62.4988C63.3322 29 64 28.3318 64 27.4994V25.5012C64 24.6741 63.3322 24 62.4988 24Z" fill="white"/>
<path d="M68.9998 11H67.0022C66.1688 11 65.501 11.6741 65.501 12.5012V14.4994C65.501 15.3318 66.1688 16 67.0022 16H68.9998C69.8272 16 70.501 15.3318 70.501 14.4994V12.5012C70.501 11.6741 69.8272 11 68.9998 11Z" fill="white"/>
<path d="M68.9998 17.498H67.0022C66.1688 17.498 65.501 18.1721 65.501 18.9992V20.9975C65.501 21.8298 66.1688 22.498 67.0022 22.498H68.9998C69.8272 22.498 70.501 21.8298 70.501 20.9975V18.9992C70.501 18.1721 69.8272 17.498 68.9998 17.498Z" fill="white"/>
<path d="M68.9998 24H67.0022C66.1688 24 65.501 24.6741 65.501 25.5012V27.4994C65.501 28.3318 66.1688 29 67.0022 29H68.9998C69.8272 29 70.501 28.3318 70.501 27.4994V25.5012C70.501 24.6741 69.8272 24 68.9998 24Z" fill="white"/>
<path d="M75.4988 11H73.5012C72.6678 11 72 11.6741 72 12.5012V14.4994C72 15.3318 72.6678 16 73.5012 16H75.4988C76.3262 16 77 15.3318 77 14.4994V12.5012C77 11.6741 76.3262 11 75.4988 11Z" fill="white"/>
<path d="M75.4988 17.5H73.5012C72.6678 17.5 72 18.1741 72 19.0012V20.9994C72 21.8318 72.6678 22.5 73.5012 22.5H75.4988C76.3262 22.5 77 21.8318 77 20.9994V19.0012C77 18.1741 76.3262 17.5 75.4988 17.5Z" fill="white"/>
<path d="M75.4988 24H73.5012C72.6678 24 72 24.6741 72 25.5012V27.4994C72 28.3318 72.6678 29 73.5012 29H75.4988C76.3262 29 77 28.3318 77 27.4994V25.5012C77 24.6741 76.3262 24 75.4988 24Z" fill="white"/>
<rect x="0.5" y="0.5" width="39" height="39" rx="11.5" fill="#3749E9" stroke="#3749E9"/>
<path d="M16.5981 11H13.4019C12.078 11 11 12.0785 11 13.4019V16.5991C11 17.9308 12.078 19 13.4019 19H16.5981C17.9314 19 19 17.9308 19 16.5991V13.4019C19 12.0785 17.9314 11 16.5981 11Z" fill="white"/>
<path d="M16.5981 21H13.4019C12.078 21 11 22.0785 11 23.4019V26.5991C11 27.9308 12.078 29 13.4019 29H16.5981C17.9314 29 19 27.9308 19 26.5991V23.4019C19 22.0785 17.9314 21 16.5981 21Z" fill="white"/>
<path d="M26.5981 11H23.4019C22.0686 11 21 12.0785 21 13.4019V16.5991C21 17.9308 22.0686 19 23.4019 19H26.5981C27.922 19 29 17.9308 29 16.5991V13.4019C29 12.0785 27.922 11 26.5981 11Z" fill="white"/>
<path d="M26.5981 21H23.4019C22.0686 21 21 22.0701 21 23.4019V26.5991C21 27.9215 22.0686 29 23.4019 29H26.5981C27.922 29 29 27.9215 29 26.5991V23.4019C29 22.0701 27.922 21 26.5981 21Z" fill="white"/>
</svg>
