<svg width="17" height="5" viewBox="0 0 17 5" fill="none" xmlns="http://www.w3.org/2000/svg">
<path d="M2.13743 0C0.994152 0 0 0.994152 0 2.13743C0 3.2807 0.994152 4.27485 2.13743 4.27485C3.2807 4.27485 4.27485 3.2807 4.27485 2.13743C4.27485 0.994152 3.2807 0 2.13743 0ZM14.8626 0C13.7193 0 12.7251 0.994152 12.7251 2.13743C12.7251 3.2807 13.7193 4.27485 14.8626 4.27485C16.0058 4.27485 17 3.2807 17 2.13743C17 0.994152 16.0058 0 14.8626 0ZM8.5 0C7.35673 0 6.36257 0.994152 6.36257 2.13743C6.36257 3.2807 7.35673 4.27485 8.5 4.27485C9.64327 4.27485 10.6374 3.2807 10.6374 2.13743C10.6374 0.994152 9.64327 0 8.5 0Z" fill="white" fill-opacity="0.5"/>
</svg>
