<svg width="250" height="80" viewBox="0 0 250 80" fill="none" xmlns="http://www.w3.org/2000/svg">
<path d="M74.6673 40.0007C74.6673 59.1466 59.1465 74.6673 40.0007 74.6673C20.8549 74.6673 5.33398 59.1466 5.33398 40.0007C5.33398 20.8549 20.8549 5.33398 40.0007 5.33398C59.1465 5.33398 74.6673 20.8549 74.6673 40.0007Z" fill="#0052FF"/>
<path d="M40.0078 27.8124C33.2742 27.8124 27.8203 33.2664 27.8203 39.9999C27.8203 46.7335 33.2742 52.1875 40.0078 52.1875C46.0406 52.1875 51.0477 47.7898 52.0126 42.0312H64.2914C63.2555 54.5438 52.7843 64.3749 40.0078 64.3749C26.5507 64.3749 15.6328 53.457 15.6328 39.9999C15.6328 26.5429 26.5507 15.625 40.0078 15.625C52.7843 15.625 63.2555 25.4562 64.2914 37.9687H52.0024C51.0376 32.2101 46.0406 27.8124 40.0078 27.8124Z" fill="white"/>
</svg>
