<svg width="24" height="24" viewBox="0 0 24 24" fill="none" xmlns="http://www.w3.org/2000/svg">
<mask id="mask0_0_1862" style="mask-type:luminance" maskUnits="userSpaceOnUse" x="2" y="14" width="16" height="7">
<path fill-rule="evenodd" clip-rule="evenodd" d="M2 14.2949H17.1998V21.0009H2V14.2949Z" fill="white"/>
</mask>
<g mask="url(#mask0_0_1862)">
<path fill-rule="evenodd" clip-rule="evenodd" d="M9.59962 15.7117C6.8177 15.7117 3.50122 16.049 3.50122 17.6594C3.50122 18.9365 5.55338 19.5844 9.59962 19.5844C13.6459 19.5844 15.698 18.9298 15.698 17.6405C15.698 16.3607 13.6459 15.7117 9.59962 15.7117ZM9.59974 21.0013C7.52155 21.0013 1.99976 21.0013 1.99976 17.6594C1.99976 14.2949 7.71976 14.2949 9.59974 14.2949C12.8622 14.2949 17.1997 14.6416 17.1997 17.6405C17.1997 21.0013 11.4797 21.0013 9.59974 21.0013Z" fill="#B9B8BB"/>
</g>
<path fill-rule="evenodd" clip-rule="evenodd" d="M9.59978 4.41683C7.59267 4.41683 5.95996 5.9574 5.95996 7.85029C5.95996 9.74318 7.59267 11.2837 9.59978 11.2837H9.63082C10.5958 11.28 11.5048 10.922 12.1865 10.2731C12.8692 9.62605 13.2426 8.76556 13.2386 7.85312C13.2386 5.9574 11.6059 4.41683 9.59978 4.41683ZM9.59989 12.7006C6.76492 12.7006 4.4585 10.5243 4.4585 7.85029C4.4585 5.17625 6.76492 3 9.59989 3C12.4339 3 14.7403 5.17625 14.7403 7.85029C14.7463 9.13866 14.2167 10.3552 13.2517 11.2715C12.2887 12.1886 11.0024 12.6959 9.63393 12.7006H9.59989Z" fill="#B9B8BB"/>
<path fill-rule="evenodd" clip-rule="evenodd" d="M16.4976 11.6257C16.1292 11.6257 15.8079 11.3697 15.7548 11.0155C15.6978 10.6283 15.9831 10.2693 16.3935 10.2155C17.6428 10.0502 18.5858 9.02724 18.5878 7.83521C18.5878 6.65074 17.6889 5.6514 16.4526 5.4606C16.0431 5.39637 15.7658 5.03272 15.8329 4.64639C15.9 4.26007 16.2874 4.00032 16.6948 4.06172C18.6619 4.36586 20.0894 5.95366 20.0894 7.83616C20.0854 9.72999 18.5868 11.3565 16.6027 11.6191C16.5677 11.6238 16.5326 11.6257 16.4976 11.6257Z" fill="#B9B8BB"/>
<mask id="mask1_0_1862" style="mask-type:luminance" maskUnits="userSpaceOnUse" x="17" y="13" width="5" height="6">
<path fill-rule="evenodd" clip-rule="evenodd" d="M17.8618 13.8457H21.9999V18.5473H17.8618V13.8457Z" fill="white"/>
</mask>
<g mask="url(#mask1_0_1862)">
<path fill-rule="evenodd" clip-rule="evenodd" d="M19.9142 18.5473C19.6109 18.5473 19.3256 18.3725 19.2125 18.0901C19.0654 17.7245 19.2606 17.3146 19.648 17.1767C20.4989 16.8726 20.4989 16.5013 20.4989 16.3427C20.4989 15.8071 19.8272 15.4406 18.5028 15.2545C18.0923 15.196 17.809 14.8352 17.8701 14.4488C17.9322 14.0616 18.3216 13.8018 18.724 13.8519C21.4328 14.2344 22.0004 15.4179 22.0004 16.3427C22.0004 17.0312 21.6851 17.9635 20.1805 18.501C20.0934 18.5321 20.0033 18.5473 19.9142 18.5473Z" fill="#B9B8BB"/>
</g>
</svg>
