<svg width="28" height="28" viewBox="0 0 28 28" fill="none" xmlns="http://www.w3.org/2000/svg">
<path fill-rule="evenodd" clip-rule="evenodd" d="M8.16646 7C4.9448 7 2.33313 9.61167 2.33313 12.8333V19.8333C2.33313 23.055 4.9448 25.6667 8.16646 25.6667H19.8331C22.999 25.6667 25.5759 23.1446 25.6641 20H20.4165C18.3914 20 16.7498 18.3584 16.7498 16.3333C16.7498 14.3083 18.3914 12.6667 20.4165 12.6667H25.6641C25.5759 9.52208 22.999 7 19.8331 7H8.16646ZM20.4165 14.1667H25.6665V18.5H20.4165C19.2198 18.5 18.2498 17.53 18.2498 16.3333C18.2498 15.1367 19.2198 14.1667 20.4165 14.1667ZM6.9998 19.6667C6.58558 19.6667 6.2498 20.0025 6.2498 20.4167C6.2498 20.8309 6.58558 21.1667 6.9998 21.1667H13.9998C14.414 21.1667 14.7498 20.8309 14.7498 20.4167C14.7498 20.0025 14.414 19.6667 13.9998 19.6667H6.9998ZM20.4165 15.5833C20.0022 15.5833 19.6665 15.9191 19.6665 16.3333C19.6665 16.7475 20.0022 17.0833 20.4165 17.0833H20.6498C21.064 17.0833 21.3998 16.7475 21.3998 16.3333C21.3998 15.9191 21.064 15.5833 20.6498 15.5833H20.4165Z" fill="white"/>
<path d="M22.7357 5.82511C21.8945 3.50184 19.4373 2.00192 16.8482 2.53497L6.81404 4.60083C4.71826 5.03231 3.02031 6.41391 2.1322 8.24014C3.51758 6.42277 5.70522 5.24992 8.1668 5.24992H19.8335C20.8615 5.24992 21.8417 5.45448 22.7357 5.82511Z" fill="white"/>
</svg>
