<svg width="24" height="23" viewBox="0 0 24 23" fill="none" xmlns="http://www.w3.org/2000/svg">
<path d="M10.9588 1.33685C11.427 0.558759 12.5551 0.558759 13.0233 1.33685L15.969 6.23153C16.1372 6.51106 16.4116 6.71042 16.7295 6.78403L22.2948 8.07298C23.1795 8.27788 23.5281 9.35073 22.9328 10.0365L19.188 14.3505C18.9741 14.5969 18.8693 14.9195 18.8975 15.2445L19.3914 20.9358C19.47 21.8405 18.5573 22.5036 17.7212 22.1493L12.461 19.9209C12.1606 19.7936 11.8215 19.7936 11.5211 19.9209L6.26096 22.1493C5.42478 22.5036 4.51216 21.8405 4.59068 20.9358L5.08461 15.2445C5.11282 14.9195 5.00801 14.5969 4.79414 14.3505L1.04928 10.0365C0.453978 9.35073 0.802567 8.27788 1.68727 8.07298L7.25265 6.78403C7.57048 6.71042 7.84488 6.51106 8.0131 6.23153L10.9588 1.33685Z" fill="white" stroke="white" stroke-width="1.5"/>
</svg>
