<svg width="22" height="22" viewBox="0 0 22 22" fill="none" xmlns="http://www.w3.org/2000/svg">
<path d="M8.16186 1.75059C8.24051 1.45081 8.13343 1.13296 7.8894 0.941894C7.64538 0.750824 7.31112 0.723109 7.03896 0.871376C5.55641 1.67904 4.2051 2.83633 3.11841 4.31195C-0.480846 9.19937 0.096453 15.9129 4.64728 19.2643C9.19811 22.6157 15.7806 21.1748 19.3799 16.2874C20.1973 15.1773 20.7984 13.9777 21.1871 12.7466C21.2812 12.4483 21.1873 12.1227 20.9488 11.9204C20.7103 11.7181 20.3737 11.6785 20.0948 11.8201C16.8335 13.4753 13.3514 13.4556 10.8567 11.6184C8.10902 9.59492 7.10911 5.76291 8.16186 1.75059Z" stroke="#B9B8BB" stroke-width="1.5" stroke-linejoin="round"/>
</svg>
