<svg width="16" height="16" viewBox="0 0 16 16" fill="none" xmlns="http://www.w3.org/2000/svg">
<path fill-rule="evenodd" clip-rule="evenodd" d="M5.5599 1.79385C6.31143 1.49814 7.19225 2.33321 7.99987 2.33321C8.80749 2.33321 9.6883 1.49814 10.4398 1.79385C10.515 1.82341 10.5894 1.8543 10.6632 1.88648C11.4032 2.20929 11.436 3.4218 12.0068 3.99264C12.5777 4.5635 13.7903 4.59625 14.1131 5.3362C14.1454 5.41008 14.1763 5.48466 14.2059 5.55991C14.5016 6.31144 13.6665 7.19226 13.6665 7.99988C13.6665 8.80749 14.5016 9.68831 14.2059 10.4398C14.1764 10.5149 14.1455 10.5893 14.1134 10.663C13.7906 11.403 12.5777 11.4357 12.0068 12.0066C11.4359 12.5776 11.4032 13.7904 10.6631 14.1133C10.5894 14.1455 10.515 14.1763 10.4398 14.2059C9.68832 14.5016 8.8075 13.6665 7.99988 13.6665C7.19226 13.6665 6.31145 14.5016 5.55991 14.2059C5.48479 14.1763 5.41033 14.1455 5.33657 14.1133C4.59656 13.7904 4.56382 12.5777 3.99293 12.0068C3.42204 11.4359 2.2093 11.4032 1.88646 10.6632C1.85428 10.5894 1.8234 10.515 1.79385 10.4398C1.49814 9.68831 2.33321 8.80749 2.33321 7.99987C2.33321 7.19225 1.49814 6.31144 1.79385 5.5599C1.82343 5.48472 1.85434 5.41021 1.88654 5.33639C2.20939 4.59641 3.42205 4.56367 3.99293 3.99279C4.5638 3.42192 4.59658 2.2093 5.33655 1.88647C5.41032 1.85429 5.48477 1.82341 5.5599 1.79385Z" fill="#48BC65"/>
<path fill-rule="evenodd" clip-rule="evenodd" d="M11.2077 6.11712C11.2881 6.19213 11.3333 6.29386 11.3333 6.39993C11.3333 6.506 11.2881 6.60773 11.2077 6.68274L7.77608 9.88288C7.69564 9.95787 7.58656 10 7.47281 10C7.35907 10 7.24998 9.95787 7.16954 9.88288L5.45373 8.28281C5.37559 8.20737 5.33235 8.10632 5.33333 8.00144C5.33431 7.89656 5.37942 7.79623 5.45895 7.72206C5.53848 7.64789 5.64607 7.60582 5.75854 7.60491C5.87101 7.604 5.97937 7.64432 6.06027 7.71719L7.47281 9.03444L10.6012 6.11712C10.6816 6.04213 10.7907 6 10.9044 6C11.0182 6 11.1273 6.04213 11.2077 6.11712Z" fill="white"/>
</svg>
