<svg width="24" height="23" viewBox="0 0 24 23" fill="none" xmlns="http://www.w3.org/2000/svg">
<path d="M10.9593 1.33685C11.4275 0.558759 12.5556 0.558759 13.0238 1.33685L15.9695 6.23153C16.1377 6.51106 16.4121 6.71042 16.7299 6.78403L22.2953 8.07298C23.18 8.27788 23.5286 9.35073 22.9333 10.0365L19.1885 14.3505C18.9746 14.5969 18.8698 14.9195 18.898 15.2445L19.3919 20.9358C19.4704 21.8405 18.5578 22.5036 17.7216 22.1493L12.4615 19.9209C12.1611 19.7936 11.822 19.7936 11.5216 19.9209L6.26145 22.1493C5.42527 22.5036 4.51265 21.8405 4.59117 20.9358L5.0851 15.2445C5.11331 14.9195 5.0085 14.5969 4.79463 14.3505L1.04977 10.0365C0.454468 9.35073 0.803057 8.27788 1.68777 8.07298L7.25314 6.78403C7.57098 6.71042 7.84537 6.51106 8.01359 6.23153L10.9593 1.33685Z" fill="white" stroke="white" stroke-width="1.5"/>
</svg>
