<svg width="28" height="28" viewBox="0 0 28 28" fill="none" xmlns="http://www.w3.org/2000/svg">
<path fill-rule="evenodd" clip-rule="evenodd" d="M1.45831 8.16658C1.45831 4.46168 4.46174 1.45825 8.16665 1.45825H19.8333C23.5382 1.45825 26.5416 4.46168 26.5416 8.16658V19.8333C26.5416 23.5382 23.5382 26.5416 19.8333 26.5416H8.16665C4.46174 26.5416 1.45831 23.5382 1.45831 19.8333V8.16658ZM8.16665 3.20825C5.42823 3.20825 3.20831 5.42817 3.20831 8.16658V19.8333C3.20831 22.5717 5.42823 24.7916 8.16665 24.7916H19.8333C22.5717 24.7916 24.7916 22.5717 24.7916 19.8333V8.16658C24.7916 5.42817 22.5717 3.20825 19.8333 3.20825H8.16665Z" fill="white"/>
<path fill-rule="evenodd" clip-rule="evenodd" d="M2.33331 8.16658C2.33331 4.94492 4.94499 2.33325 8.16665 2.33325H19.8333C23.055 2.33325 25.6666 4.94492 25.6666 8.16658V19.8333C25.6666 20.6818 25.4855 21.488 25.1597 22.2154L25.5877 19.219C25.6368 18.8756 25.5044 18.5314 25.238 18.3094L19.9294 13.8856C19.2143 13.2896 18.1626 13.3373 17.5043 13.9956L11.3485 20.1514C10.8799 20.62 10.1201 20.62 9.65145 20.1514L8.0782 18.5781C7.45601 17.9559 6.47519 17.8748 5.75917 18.3862L3.33541 20.1175C3.07261 20.3052 2.91665 20.6083 2.91665 20.9312V22.2693C2.91665 22.3117 2.91934 22.3538 2.92462 22.3953C2.54591 21.622 2.33331 20.7524 2.33331 19.8333V8.16658ZM22.4046 24.8929L24.6914 23.0635C23.6459 24.6327 21.8603 25.6666 19.8333 25.6666H8.16665C6.13962 25.6666 4.35408 24.6327 3.30859 23.0635L5.58648 24.8858C5.74712 25.0143 5.94348 25.0901 6.1488 25.103L15.0939 25.662C15.1423 25.6651 15.1909 25.6646 15.2393 25.6605L21.863 25.1086C22.0609 25.0921 22.2495 25.017 22.4046 24.8929ZM9.33331 11.6666C8.04465 11.6666 6.99998 10.6219 6.99998 9.33325C6.99998 8.04459 8.04465 6.99992 9.33331 6.99992C10.622 6.99992 11.6666 8.04459 11.6666 9.33325C11.6666 10.6219 10.622 11.6666 9.33331 11.6666Z" fill="white"/>
</svg>
