<svg width="80" height="80" viewBox="0 0 80 80" fill="none" xmlns="http://www.w3.org/2000/svg">
<path d="M9.21429 42.9731L9.21427 42.9731C7.68717 44.3762 7.68717 46.6511 9.21427 48.0542L36.8648 73.4598C38.3919 74.8629 40.8678 74.8629 42.3949 73.4598C43.922 72.0567 43.922 69.7818 42.3949 68.3787L14.7444 42.9731C13.2173 41.57 10.7414 41.57 9.21429 42.9731Z" fill="#E41B9F"/>
<path fill-rule="evenodd" clip-rule="evenodd" d="M3.4319 23.2154L17.5669 10.2279C26.9238 1.63071 37.6079 2.30142 45.9694 9.98415C47.0314 10.9597 48.3584 12.6669 49.1549 13.7644C49.4868 14.1913 49.6857 14.4962 49.9512 14.7399C50.4822 15.2278 51.0129 15.3498 52.1411 15.0449C59.1092 13.2767 65.2144 15.2278 71.0542 20.5934C79.2166 28.0931 80.0792 38.1537 69.7269 47.6657L49.8848 65.8968C48.8231 66.8724 47.9604 66.8114 46.8987 65.8358L3.49825 25.9591C2.43648 24.9835 2.37013 24.1909 3.4319 23.2154ZM32.4334 30.1052L35.8178 26.9954C37.5433 25.4102 37.8086 23.2152 35.7514 21.325C33.7607 19.4957 31.3053 19.6787 29.5798 21.2641L26.1954 24.3737C25.1337 25.3492 25.2 26.1418 26.2618 27.1174L29.4471 30.0442C30.5088 31.0198 31.3717 31.0807 32.4334 30.1052ZM48.6257 44.9844L57.5182 36.8139C60.1063 34.4359 60.6373 32.2408 58.4472 30.2288C56.3237 28.2776 53.8683 28.7043 51.2802 31.0823L42.3879 39.2528C41.3259 40.2284 41.3923 41.021 42.454 41.9965L45.6395 44.9234C46.7013 45.8989 47.5639 45.9599 48.6257 44.9844Z" fill="#2926CF"/>
</svg>
