<svg width="11" height="17" viewBox="0 0 11 17" fill="none" xmlns="http://www.w3.org/2000/svg">
<path d="M9.99587 11.3951L6.62808 8.33578H4.369L1.00121 11.3951C0.0592299 12.2454 -0.249206 13.5542 0.20928 14.7379C0.667766 15.9133 1.7848 16.6719 3.04356 16.6719H7.95352C9.22061 16.6719 10.3293 15.9133 10.7878 14.7379C11.2463 13.5542 10.9379 12.2454 9.99587 11.3951ZM7.01988 13.4542H3.98554C3.66877 13.4542 3.41868 13.1957 3.41868 12.8873C3.41868 12.5789 3.6771 12.3204 3.98554 12.3204H7.01988C7.33665 12.3204 7.58674 12.5789 7.58674 12.8873C7.58674 13.1957 7.32832 13.4542 7.01988 13.4542Z" fill="white"/>
<path d="M10.7961 1.93398C10.3376 0.758586 9.22056 0 7.96181 0H3.04351C1.78475 0 0.667714 0.758586 0.209228 1.93398C-0.240921 3.1177 0.0675147 4.42647 1.00949 5.27676L4.37728 8.33611H6.63637L10.0042 5.27676C10.9378 4.42647 11.2462 3.1177 10.7961 1.93398ZM7.01983 4.35978H3.98549C3.66871 4.35978 3.41863 4.10137 3.41863 3.79293C3.41863 3.48449 3.67705 3.22607 3.98549 3.22607H7.01983C7.3366 3.22607 7.58668 3.48449 7.58668 3.79293C7.58668 4.10137 7.32826 4.35978 7.01983 4.35978Z" fill="white"/>
</svg>
