<svg width="24" height="23" viewBox="0 0 24 23" fill="none" xmlns="http://www.w3.org/2000/svg">
<path d="M10.9589 1.33659C11.4271 0.558508 12.5552 0.558508 13.0235 1.33659L15.9691 6.23122C16.1373 6.51074 16.4117 6.7101 16.7295 6.78371L22.2948 8.07265C23.1795 8.27755 23.5281 9.35038 22.9328 10.0362L19.188 14.3501C18.9741 14.5965 18.8693 14.9191 18.8975 15.2441L19.3915 20.9353C19.47 21.8401 18.5574 22.5031 17.7212 22.1489L12.4611 19.9204C12.1608 19.7931 11.8216 19.7931 11.5212 19.9204L6.26114 22.1489C5.42497 22.5031 4.51236 21.8401 4.59087 20.9353L5.0848 15.2441C5.11301 14.9191 5.0082 14.5965 4.79434 14.3501L1.04952 10.0362C0.454218 9.35038 0.802804 8.27755 1.6875 8.07265L7.25282 6.78371C7.57065 6.7101 7.84504 6.51074 8.01326 6.23122L10.9589 1.33659Z" fill="white" stroke="white" stroke-width="1.5"/>
</svg>
