<svg width="16" height="16" viewBox="0 0 16 16" fill="none" xmlns="http://www.w3.org/2000/svg">
<path d="M7.96044 16C12.3569 16 15.9209 12.4183 15.9209 8C15.9209 3.58172 12.3569 0 7.96044 0C3.56401 0 0 3.58172 0 8C0 12.4183 3.56401 16 7.96044 16Z" fill="#3749E9"/>
<path d="M11.2075 8.73628C11.1934 8.73539 8.00238 10.6358 7.96058 10.652C7.95119 10.6466 4.73211 8.73194 4.7168 8.73389C4.72459 8.74539 7.95843 13.334 7.96058 13.334C7.9628 13.334 11.2075 8.73628 11.2075 8.73628Z" fill="white"/>
<path d="M7.96237 2.66699L4.72754 8.1041L7.96237 10.0298L11.1973 8.1041L7.96237 2.66699Z" fill="white"/>
</svg>
