<svg width="22" height="22" viewBox="0 0 22 22" fill="none" xmlns="http://www.w3.org/2000/svg">
<g clip-path="url(#clip0_1_29972)">
<path fill-rule="evenodd" clip-rule="evenodd" d="M11.4077 0.969027C10.7937 0.692111 10.0634 0.713495 9.45253 0.988272C8.58983 1.34582 7.72213 1.69011 6.8545 2.03437C6.18362 2.30056 5.51279 2.56674 4.84435 2.83901C4.71673 2.89214 4.58596 2.94139 4.45472 2.99081C3.98903 3.16621 3.5173 3.34387 3.15845 3.70504C2.81261 4.07651 2.62595 4.55334 2.44188 5.02356C2.40344 5.12176 2.36511 5.21968 2.32546 5.31629C1.83262 6.48225 1.34454 7.6503 0.856285 8.81876C0.738325 9.10105 0.620356 9.38337 0.502307 9.66568C0.466196 9.7503 0.428378 9.83452 0.390508 9.91887C0.250364 10.231 0.1095 10.5447 0.0517578 10.8856V11.5464C0.0569929 11.5891 0.0643897 11.651 0.0719844 11.7146C0.0811104 11.791 0.0905222 11.8698 0.0968128 11.9206L0.16911 11.9345C0.291097 12.2822 0.436558 12.6204 0.581937 12.9585C0.642596 13.0995 0.70324 13.2405 0.762159 13.3821C0.879206 13.6436 0.988243 13.9089 1.09729 14.1741C1.18933 14.3981 1.28138 14.622 1.37826 14.8437C1.51342 15.1534 1.64199 15.4662 1.77057 15.7791C1.85331 15.9804 1.93605 16.1817 2.02055 16.3822C2.18087 16.7297 2.33175 17.0815 2.46901 17.4386C2.70895 18.1496 3.11969 18.8274 3.80494 19.1674C4.34246 19.3609 4.87788 19.5619 5.39339 19.8132L5.6501 19.8389L5.66058 19.9169C6.66855 20.2719 7.65662 20.6824 8.63944 21.1016C8.69183 21.1144 8.79766 21.139 8.85005 21.1507C9.06425 21.2465 9.28046 21.3358 9.49678 21.4251C9.66456 21.4944 9.83242 21.5638 9.99947 21.6361C10.7455 21.7719 11.4538 21.4939 12.1212 21.185C12.4031 21.0497 12.6967 20.9441 12.9901 20.8385C13.2672 20.7388 13.5442 20.6392 13.8113 20.5146C13.8333 20.5074 13.8651 20.4966 13.8981 20.4855C13.9389 20.4716 13.9815 20.4572 14.0094 20.4483C15.0781 20.0024 16.1563 19.5769 17.2397 19.1653C17.641 18.9247 18.0371 18.6232 18.2288 18.1742C18.6056 17.3333 18.9592 16.4815 19.3128 15.6297C19.4529 15.2922 19.593 14.9548 19.7345 14.6181C19.8888 14.2139 20.0641 13.8178 20.2394 13.4217C20.526 12.7743 20.8125 12.1269 21.0076 11.4437V11.0973C20.7552 10.2367 20.3988 9.41672 20.0425 8.59663C19.8321 8.11258 19.6217 7.6285 19.4327 7.13602C19.2502 6.73106 19.0825 6.31926 18.9148 5.90752C18.6685 5.30282 18.4222 4.69824 18.1293 4.1156C17.8082 3.50561 17.1502 3.25171 16.5477 3.01921C16.5092 3.00435 16.4709 2.98957 16.4329 2.9748C15.5243 2.60682 14.6128 2.24517 13.7013 1.88349C12.9363 1.57995 12.1712 1.27638 11.4077 0.969027ZM7.95447 5.92686C8.44274 5.54944 9.03579 5.33667 9.63303 5.2212C11.0748 4.99774 12.6129 5.23938 13.8787 5.99956C14.1595 6.16101 14.456 6.34811 14.5985 6.65817C14.8709 7.23018 14.4172 8.00533 13.7833 7.99357C13.4782 8.03558 13.2209 7.87576 12.9694 7.71949C12.8944 7.67294 12.82 7.6267 12.745 7.58621C11.8742 7.06018 10.8223 6.85811 9.82687 7.0527C9.33441 7.16924 8.89643 7.52099 8.7204 8.01174C8.65334 8.38809 8.63867 8.83501 8.90481 9.13972C9.22962 9.55542 9.7376 9.72761 10.2198 9.89108C10.2883 9.91429 10.3562 9.93732 10.4231 9.96085C10.6886 10.0387 10.9592 10.1089 11.2307 10.1794C12.2306 10.4391 13.2432 10.702 14.0673 11.3604C14.7787 11.8864 15.1297 12.8027 15.091 13.6837C15.1234 14.6759 14.6918 15.6766 13.9195 16.2871C13.0824 16.9586 11.9937 17.2066 10.9459 17.1799C9.4811 17.2066 8.03724 16.6945 6.84381 15.8434C6.563 15.6435 6.27381 15.3548 6.2801 14.9795C6.24028 14.4343 6.75475 13.936 7.28284 13.9713C7.57917 13.9697 7.8105 14.1488 8.03773 14.3246C8.11581 14.3851 8.19341 14.4451 8.273 14.4973C9.25478 15.2019 10.5006 15.497 11.6856 15.3153C12.0754 15.234 12.4683 15.0779 12.7366 14.7668C13.2269 14.2771 13.2196 13.3491 12.6653 12.9118C12.0731 12.4623 11.3399 12.2829 10.6319 12.1097C10.5972 12.1012 10.5625 12.0927 10.5278 12.0842C10.4832 12.0724 10.4385 12.0607 10.3937 12.0489C9.33169 11.7695 8.21365 11.4753 7.40333 10.6772C6.85429 10.1276 6.63111 9.32683 6.66883 8.55809C6.61958 7.53168 7.1351 6.51383 7.95447 5.92686Z" fill="#7310C1"/>
<path fill-rule="evenodd" clip-rule="evenodd" d="M9.16251 5.02941C10.6017 4.80485 12.137 5.04767 13.4005 5.81162C13.6808 5.97386 13.9768 6.16189 14.119 6.47349C14.3909 7.04832 13.9381 7.82731 13.3053 7.81549C12.91 7.87029 12.5951 7.58341 12.2688 7.40612C11.3997 6.87749 10.3496 6.67441 9.356 6.86996C8.86443 6.98708 8.42725 7.34058 8.25154 7.83376C8.1846 8.21197 8.16996 8.66109 8.43561 8.96732C8.80586 9.44438 9.41457 9.60232 9.95112 9.7925C11.1926 10.1589 12.5428 10.3577 13.5887 11.199C14.2989 11.7276 14.6493 12.6484 14.6106 13.5338C14.643 14.5309 14.2121 15.5366 13.4413 16.1501C12.6056 16.8249 11.5189 17.0741 10.473 17.0473C9.01086 17.0741 7.56961 16.5595 6.37834 15.7042C6.09804 15.5033 5.80937 15.2132 5.81564 14.836C5.7759 14.2881 6.28943 13.7874 6.81657 13.8228C7.21401 13.8207 7.49431 14.1462 7.80494 14.3514C8.78494 15.0595 10.0285 15.3561 11.2114 15.1734C11.6005 15.0918 11.9927 14.9349 12.2605 14.6222C12.7499 14.1301 12.7426 13.1975 12.1893 12.758C11.5691 12.2842 10.7941 12.109 10.0557 11.9264C8.95647 11.6341 7.77984 11.3483 6.93684 10.5124C6.38879 9.96012 6.16602 9.15535 6.20367 8.38281C6.15451 7.35132 6.66909 6.32843 7.48699 5.73855C7.97437 5.35927 8.56635 5.14545 9.16251 5.02941Z" fill="#FEFEFE"/>
</g>
<defs>
<clipPath id="clip0_1_29972">
<rect width="22" height="22" fill="white"/>
</clipPath>
</defs>
</svg>
