<svg width="19" height="19" viewBox="0 0 19 19" fill="none" xmlns="http://www.w3.org/2000/svg">
<path d="M14.7253 5.28099C14.673 5.27228 14.612 5.27228 14.5597 5.28099C13.3571 5.23742 12.3985 4.25268 12.3985 3.03265C12.3985 1.78647 13.4007 0.784305 14.6468 0.784305C15.893 0.784305 16.8952 1.79519 16.8952 3.03265C16.8865 4.25268 15.9279 5.23742 14.7253 5.28099Z" stroke="#B9B8BB" stroke-width="1.5" stroke-linecap="round" stroke-linejoin="round"/>
<path d="M13.8276 11.6253C15.0215 11.8257 16.3373 11.6166 17.2611 10.9978C18.4898 10.1787 18.4898 8.83665 17.2611 8.01748C16.3286 7.39875 14.9953 7.1896 13.8014 7.39875" stroke="#B9B8BB" stroke-width="1.5" stroke-linecap="round" stroke-linejoin="round"/>
<path d="M4.24173 5.28099C4.29402 5.27228 4.35502 5.27228 4.40731 5.28099C5.60991 5.23742 6.56851 4.25268 6.56851 3.03265C6.56851 1.78647 5.56634 0.784305 4.32017 0.784305C3.07399 0.784305 2.07182 1.79519 2.07182 3.03265C2.08054 4.25268 3.03913 5.23742 4.24173 5.28099Z" stroke="#B9B8BB" stroke-width="1.5" stroke-linecap="round" stroke-linejoin="round"/>
<path d="M5.13938 11.6253C3.94549 11.8257 2.6296 11.6166 1.70586 10.9978C0.477119 10.1787 0.477119 8.83665 1.70586 8.01748C2.63832 7.39875 3.97163 7.1896 5.16552 7.39875" stroke="#B9B8BB" stroke-width="1.5" stroke-linecap="round" stroke-linejoin="round"/>
<path d="M9.49683 11.7903C9.44455 11.7816 9.38355 11.7816 9.33126 11.7903C8.12866 11.7467 7.17006 10.762 7.17006 9.54197C7.17006 8.2958 8.17223 7.29363 9.4184 7.29363C10.6646 7.29363 11.6667 8.30451 11.6667 9.54197C11.658 10.762 10.6994 11.7555 9.49683 11.7903Z" stroke="#B9B8BB" stroke-width="1.5" stroke-linecap="round" stroke-linejoin="round"/>
<path d="M6.96086 14.5356C5.73212 15.3548 5.73212 16.6968 6.96086 17.5159C8.35518 18.4484 10.6384 18.4484 12.0327 17.5159C13.2614 16.6968 13.2614 15.3548 12.0327 14.5356C10.6471 13.6118 8.35518 13.6118 6.96086 14.5356Z" stroke="#B9B8BB" stroke-width="1.5" stroke-linecap="round" stroke-linejoin="round"/>
</svg>
