<svg width="36" height="36" viewBox="0 0 36 36" fill="none" xmlns="http://www.w3.org/2000/svg">
<rect opacity="0.4" x="10" y="10" width="15" height="16" fill="white"/>
<path d="M17.9996 21.5996C18.9544 21.5996 19.8701 21.2203 20.5452 20.5452C21.2203 19.8701 21.5996 18.9544 21.5996 17.9996C21.5996 17.0448 21.2203 16.1292 20.5452 15.454C19.8701 14.7789 18.9544 14.3996 17.9996 14.3996C17.0448 14.3996 16.1292 14.7789 15.454 15.454C14.7789 16.1292 14.3996 17.0448 14.3996 17.9996C14.3996 18.9544 14.7789 19.8701 15.454 20.5452C16.1292 21.2203 17.0448 21.5996 17.9996 21.5996ZM14.3996 4.49961C14.3996 4.26091 14.3048 4.032 14.136 3.86321C13.9672 3.69443 13.7383 3.59961 13.4996 3.59961C13.2609 3.59961 13.032 3.69443 12.8632 3.86321C12.6944 4.032 12.5996 4.26091 12.5996 4.49961V7.19961H11.6996C10.5061 7.19961 9.36154 7.67371 8.51763 8.51763C7.67371 9.36154 7.19961 10.5061 7.19961 11.6996V12.5996H4.49961C4.26091 12.5996 4.032 12.6944 3.86321 12.8632C3.69443 13.032 3.59961 13.2609 3.59961 13.4996C3.59961 13.7383 3.69443 13.9672 3.86321 14.136C4.032 14.3048 4.26091 14.3996 4.49961 14.3996H7.19961V17.0996H4.49961C4.26091 17.0996 4.032 17.1944 3.86321 17.3632C3.69443 17.532 3.59961 17.7609 3.59961 17.9996C3.59961 18.2383 3.69443 18.4672 3.86321 18.636C4.032 18.8048 4.26091 18.8996 4.49961 18.8996H7.19961V21.5996H4.49961C4.26091 21.5996 4.032 21.6944 3.86321 21.8632C3.69443 22.032 3.59961 22.2609 3.59961 22.4996C3.59961 22.7383 3.69443 22.9672 3.86321 23.136C4.032 23.3048 4.26091 23.3996 4.49961 23.3996H7.19961V24.2996C7.19961 25.4931 7.67371 26.6377 8.51763 27.4816C9.36154 28.3255 10.5061 28.7996 11.6996 28.7996H12.5996V31.4996C12.5996 31.7383 12.6944 31.9672 12.8632 32.136C13.032 32.3048 13.2609 32.3996 13.4996 32.3996C13.7383 32.3996 13.9672 32.3048 14.136 32.136C14.3048 31.9672 14.3996 31.7383 14.3996 31.4996V28.7996H17.0996V31.4996C17.0996 31.7383 17.1944 31.9672 17.3632 32.136C17.532 32.3048 17.7609 32.3996 17.9996 32.3996C18.2383 32.3996 18.4672 32.3048 18.636 32.136C18.8048 31.9672 18.8996 31.7383 18.8996 31.4996V28.7996H21.5996V31.4996C21.5996 31.7383 21.6944 31.9672 21.8632 32.136C22.032 32.3048 22.2609 32.3996 22.4996 32.3996C22.7383 32.3996 22.9672 32.3048 23.136 32.136C23.3048 31.9672 23.3996 31.7383 23.3996 31.4996V28.7996H24.2996C25.4931 28.7996 26.6377 28.3255 27.4816 27.4816C28.3255 26.6377 28.7996 25.4931 28.7996 24.2996V23.3996H31.4996C31.7383 23.3996 31.9672 23.3048 32.136 23.136C32.3048 22.9672 32.3996 22.7383 32.3996 22.4996C32.3996 22.2609 32.3048 22.032 32.136 21.8632C31.9672 21.6944 31.7383 21.5996 31.4996 21.5996H28.7996V18.8996H31.4996C31.7383 18.8996 31.9672 18.8048 32.136 18.636C32.3048 18.4672 32.3996 18.2383 32.3996 17.9996C32.3996 17.7609 32.3048 17.532 32.136 17.3632C31.9672 17.1944 31.7383 17.0996 31.4996 17.0996H28.7996V14.3996H31.4996C31.7383 14.3996 31.9672 14.3048 32.136 14.136C32.3048 13.9672 32.3996 13.7383 32.3996 13.4996C32.3996 13.2609 32.3048 13.032 32.136 12.8632C31.9672 12.6944 31.7383 12.5996 31.4996 12.5996H28.7996V11.6996C28.7996 10.5061 28.3255 9.36154 27.4816 8.51763C26.6377 7.67371 25.4931 7.19961 24.2996 7.19961H23.3996V4.49961C23.3996 4.26091 23.3048 4.032 23.136 3.86321C22.9672 3.69443 22.7383 3.59961 22.4996 3.59961C22.2609 3.59961 22.032 3.69443 21.8632 3.86321C21.6944 4.032 21.5996 4.26091 21.5996 4.49961V7.19961H18.8996V4.49961C18.8996 4.26091 18.8048 4.032 18.636 3.86321C18.4672 3.69443 18.2383 3.59961 17.9996 3.59961C17.7609 3.59961 17.532 3.69443 17.3632 3.86321C17.1944 4.032 17.0996 4.26091 17.0996 4.49961V7.19961H14.3996V4.49961ZM23.3996 17.9996C23.3996 19.4318 22.8307 20.8053 21.818 21.818C20.8053 22.8307 19.4318 23.3996 17.9996 23.3996C16.5674 23.3996 15.1939 22.8307 14.1812 21.818C13.1685 20.8053 12.5996 19.4318 12.5996 17.9996C12.5996 16.5674 13.1685 15.1939 14.1812 14.1812C15.1939 13.1685 16.5674 12.5996 17.9996 12.5996C19.4318 12.5996 20.8053 13.1685 21.818 14.1812C22.8307 15.1939 23.3996 16.5674 23.3996 17.9996Z" fill="white"/>
<rect x="14" y="14" width="8" height="8" rx="4" fill="#3749E9"/>
</svg>
