<svg width="13" height="19" viewBox="0 0 13 19" fill="none" xmlns="http://www.w3.org/2000/svg">
<path d="M6.49762 8.22602C6.41342 8.2176 6.31238 8.2176 6.21977 8.22602C4.21589 8.15866 2.62457 6.51682 2.62457 4.4961C2.62457 2.43328 4.29166 0.75777 6.3629 0.75777C8.42572 0.75777 10.1012 2.43328 10.1012 4.4961C10.0928 6.51682 8.5015 8.15866 6.49762 8.22602Z" stroke="#3749E9" stroke-width="1.5" stroke-linecap="round" stroke-linejoin="round"/>
<path d="M2.28594 11.3302C0.24838 12.6942 0.24838 14.917 2.28594 16.2726C4.60135 17.8218 8.39862 17.8218 10.714 16.2726C12.7516 14.9086 12.7516 12.6858 10.714 11.3302C8.40704 9.78944 4.60977 9.78944 2.28594 11.3302Z" stroke="#3749E9" stroke-width="1.5" stroke-linecap="round" stroke-linejoin="round"/>
</svg>
