<svg width="16" height="16" viewBox="0 0 16 16" fill="none" xmlns="http://www.w3.org/2000/svg">
<path d="M0.667969 8.04273C0.668744 11.3425 3.05357 14.1521 6.29264 14.6693V9.98125H4.6013V8.04273H6.29464V6.56703C6.21894 5.86778 6.45632 5.17088 6.9424 4.66535C7.42847 4.15981 8.11287 3.89804 8.80997 3.95102C9.31033 3.95915 9.80943 4.00399 10.3033 4.08518V5.7346H9.46064C9.17053 5.69637 8.87887 5.79277 8.66782 5.99665C8.45676 6.20053 8.34915 6.48981 8.3753 6.78302V8.04273H10.2226L9.9273 9.98192H8.3753V14.6693C11.8783 14.1123 14.3347 10.8934 13.965 7.3445C13.5953 3.79565 10.5288 1.15923 6.98719 1.3452C3.44554 1.53117 0.668532 4.47443 0.667969 8.04273Z" fill="#EBEBEB"/>
</svg>
