<svg width="24" height="24" viewBox="0 0 24 24" fill="none" xmlns="http://www.w3.org/2000/svg">
<g clip-path="url(#clip0_1_36479)">
<path fill-rule="evenodd" clip-rule="evenodd" d="M16.8416 6.54867C15.6026 5.36697 13.9491 4.7232 12.2383 4.74966C9.10766 4.74966 6.44884 6.86171 5.50082 9.70571C4.99816 11.1961 4.99816 12.8099 5.50082 14.3003H5.50522C6.45763 17.1399 9.11205 19.252 12.2427 19.252C13.8587 19.252 15.2461 18.8386 16.3213 18.1085V18.1056C17.5868 17.2678 18.451 15.9494 18.72 14.4591H12.2383V9.83807H23.5571C23.6982 10.6406 23.7643 11.4607 23.7643 12.2764C23.7643 15.9263 22.4599 19.0121 20.1903 21.1021L20.1927 21.1039C18.2041 22.9382 15.4747 24.0008 12.2383 24.0008C7.70107 24.0008 3.55188 21.4434 1.51477 17.3912C-0.187219 14.0005 -0.187215 10.0056 1.51478 6.61484C3.55189 2.55825 7.70107 0.000808666 12.2383 0.000808666C15.219 -0.034466 18.0983 1.0855 20.2677 3.12262L16.8416 6.54867Z" fill="white"/>
</g>
<defs>
<clipPath id="clip0_1_36479">
<rect width="24" height="24" fill="white"/>
</clipPath>
</defs>
</svg>
