<svg width="24" height="23" viewBox="0 0 24 23" fill="none" xmlns="http://www.w3.org/2000/svg">
<path d="M10.9588 1.33659C11.4271 0.558508 12.5551 0.558508 13.0234 1.33659L15.969 6.23122C16.1373 6.51074 16.4116 6.7101 16.7295 6.78371L22.2948 8.07265C23.1795 8.27755 23.5281 9.35038 22.9328 10.0362L19.188 14.3501C18.9741 14.5965 18.8693 14.9191 18.8975 15.2441L19.3914 20.9353C19.4699 21.8401 18.5573 22.5031 17.7212 22.1489L12.4611 19.9204C12.1607 19.7931 11.8215 19.7931 11.5211 19.9204L6.26109 22.1489C5.42492 22.5031 4.51231 21.8401 4.59083 20.9353L5.08475 15.2441C5.11296 14.9191 5.00815 14.5965 4.79429 14.3501L1.04947 10.0362C0.454172 9.35038 0.802758 8.27755 1.68746 8.07265L7.25277 6.78371C7.5706 6.7101 7.84499 6.51074 8.01322 6.23122L10.9588 1.33659Z" fill="white" stroke="white" stroke-width="1.5"/>
</svg>
