<svg width="16" height="16" viewBox="0 0 16 16" fill="none" xmlns="http://www.w3.org/2000/svg">
<path d="M13.0963 4.12101C13.6676 3.76356 14.0952 3.20071 14.299 2.53755C13.7621 2.87092 13.1747 3.10576 12.5621 3.2319C11.7128 2.29178 10.3672 2.063 9.27715 2.67339C8.18711 3.28378 7.6225 4.58224 7.89881 5.84321C5.6995 5.72767 3.65046 4.64055 2.26156 2.85238C1.53673 4.16065 1.90713 5.83306 3.10804 6.67429C2.67378 6.65968 2.24915 6.53665 1.86956 6.31545C1.86956 6.32745 1.86956 6.33946 1.86956 6.35146C1.86981 7.71425 2.78766 8.88812 4.06416 9.1582C3.66136 9.27288 3.23885 9.28976 2.82886 9.20756C3.18785 10.373 4.2143 11.1714 5.38423 11.1952C4.41526 11.991 3.21862 12.4226 1.98684 12.4205C1.76851 12.4208 1.55035 12.4077 1.3335 12.3812C2.58434 13.2223 4.04017 13.6687 5.52701 13.6671C7.59557 13.682 9.58351 12.8286 11.0462 11.298C12.5088 9.76726 13.3242 7.68696 13.3098 5.52238C13.3098 5.39832 13.307 5.27492 13.3015 5.1522C13.8372 4.74706 14.2996 4.24517 14.6668 3.67012C14.1677 3.90161 13.6384 4.05359 13.0963 4.12101Z" fill="#EBEBEB"/>
</svg>
