<svg width="16" height="17" viewBox="0 0 16 17" fill="none" xmlns="http://www.w3.org/2000/svg">
<path d="M14.1012 3.27244L9.05232 0.356993C8.22784 -0.118998 7.20786 -0.118998 6.37488 0.356993L1.33447 3.27244C0.50999 3.74843 0 4.63241 0 5.59289V11.4068C0 12.3588 0.50999 13.2427 1.33447 13.7272L6.38338 16.6427C7.20786 17.1187 8.22784 17.1187 9.06082 16.6427L14.1097 13.7272C14.9342 13.2512 15.4442 12.3673 15.4442 11.4068V5.59289C15.4357 4.63241 14.9257 3.75693 14.1012 3.27244ZM7.71785 4.53891C8.81433 4.53891 9.69831 5.42289 9.69831 6.51937C9.69831 7.61585 8.81433 8.49983 7.71785 8.49983C6.62137 8.49983 5.73739 7.61585 5.73739 6.51937C5.73739 5.43139 6.62137 4.53891 7.71785 4.53891ZM9.9958 12.4608H5.43989C4.75141 12.4608 4.35191 11.6958 4.73441 11.1263C5.3124 10.2678 6.43437 9.68981 7.71785 9.68981C9.00132 9.68981 10.1233 10.2678 10.7013 11.1263C11.0838 11.6873 10.6758 12.4608 9.9958 12.4608Z" fill="white"/>
</svg>
