<svg width="24" height="24" viewBox="0 0 24 24" fill="none" xmlns="http://www.w3.org/2000/svg">
<path d="M17.2883 9.31002C17.1958 9.21732 17.0859 9.14377 16.9649 9.09359C16.8439 9.04341 16.7142 9.01758 16.5833 9.01758C16.4523 9.01758 16.3226 9.04341 16.2016 9.09359C16.0807 9.14377 15.9708 9.21732 15.8783 9.31002L11.9983 13.19L8.11827 9.31002C7.93129 9.12304 7.6777 9.018 7.41327 9.018C7.14884 9.018 6.89525 9.12304 6.70827 9.31002C6.52129 9.497 6.41625 9.7506 6.41625 10.015C6.41625 10.2794 6.52129 10.533 6.70827 10.72L11.2983 15.31C11.3908 15.4027 11.5007 15.4763 11.6216 15.5265C11.7426 15.5766 11.8723 15.6025 12.0033 15.6025C12.1342 15.6025 12.2639 15.5766 12.3849 15.5265C12.5059 15.4763 12.6158 15.4027 12.7083 15.31L17.2983 10.72C17.6783 10.34 17.6783 9.70002 17.2883 9.31002Z" fill="white"/>
</svg>
