<svg width="96" height="65" viewBox="0 0 96 65" fill="none" xmlns="http://www.w3.org/2000/svg">
<path opacity="0.4" d="M77.4375 24.1875C74.625 10.5 62.625 0 48 0C36.375 0 26.4375 6.5625 21.375 16.3125C9.375 17.4375 0 27.75 0 40.125C0 53.25 10.6875 64.125 24 64.125H75.9375C87 64.125 96 55.125 96 44.0625C96 33.5625 87.75 24.9375 77.4375 24.1875ZM75.9375 56.0625H24C15.1875 56.0625 8.0625 48.9375 8.0625 40.125C8.0625 31.875 14.0625 24.9375 22.3125 24.1875L26.4375 23.8125L28.5 19.875C32.25 12.5625 39.75 8.0625 48 8.0625C58.5 8.0625 67.5 15.5625 69.5625 25.875L70.6875 31.875L76.875 32.25C83.0625 32.625 87.9375 37.875 87.9375 44.0625C87.9375 50.625 82.6875 56.0625 75.9375 56.0625ZM32.0625 36H42.1875V48H53.8125V36H63.9375L48 20.0625L32.0625 36Z" fill="#565660"/>
</svg>
