<svg width="250" height="80" viewBox="0 0 250 80" fill="none" xmlns="http://www.w3.org/2000/svg">
<path fill-rule="evenodd" clip-rule="evenodd" d="M15.67 6.66602C12.1707 6.66602 9.33398 9.46034 9.33398 12.9073V20.1778C9.33398 23.6247 12.1707 26.4191 15.67 26.4191H26.8802V67.0914C26.8802 70.5383 29.717 73.3327 33.2163 73.3327H40.5973C44.0966 73.3327 46.9334 70.5383 46.9334 67.0914V20.2307C46.9335 20.2131 46.9336 20.1955 46.9336 20.1778V12.9073C46.9336 9.46034 44.0969 6.66602 40.5975 6.66602H33.2163H15.67Z" fill="#0097FF"/>
<path d="M61.9738 26.4191C67.5113 26.4191 72.0004 21.9972 72.0004 16.5425C72.0004 11.0879 67.5113 6.66602 61.9738 6.66602C56.4362 6.66602 51.9473 11.0879 51.9473 16.5425C51.9473 21.9972 56.4362 26.4191 61.9738 26.4191Z" fill="#0097FF"/>
</svg>
