<svg width="17" height="15" viewBox="0 0 17 15" fill="none" xmlns="http://www.w3.org/2000/svg">
<path d="M12.75 0H4.25C1.7 0 0 1.275 0 4.25V10.2C0 13.175 1.7 14.45 4.25 14.45H12.75C15.3 14.45 17 13.175 17 10.2V4.25C17 1.275 15.3 0 12.75 0ZM13.1495 5.17649L10.489 7.30149C9.92799 7.75199 9.21399 7.97299 8.49999 7.97299C7.78599 7.97299 7.06349 7.75199 6.51099 7.30149L3.8505 5.17649C3.5785 4.95549 3.536 4.54749 3.7485 4.27549C3.9695 4.0035 4.369 3.9525 4.64099 4.17349L7.30149 6.29849C7.94749 6.81699 9.04399 6.81699 9.68999 6.29849L12.3505 4.17349C12.6225 3.9525 13.0305 3.99499 13.243 4.27549C13.464 4.54749 13.4215 4.95549 13.1495 5.17649Z" fill="white"/>
</svg>
