<svg width="17" height="17" viewBox="0 0 17 17" fill="none" xmlns="http://www.w3.org/2000/svg">
<path d="M16.019 4.89856C16.4549 5.45405 15.9742 6.16202 15.2681 6.16202H1.01992C0.456634 6.16202 0 5.70539 0 5.1421V3.75671C0 1.68287 1.68287 0 3.75671 0H5.72855C7.11395 0 7.54741 0.450465 8.09987 1.18991L9.28978 2.77078C9.55325 3.11926 9.58725 3.16175 10.0802 3.16175H12.4515C13.8987 3.16175 15.1888 3.84052 16.019 4.89856Z" fill="white"/>
<path d="M15.9652 7.43826C16.5271 7.43825 16.9832 7.89278 16.9851 8.45472L16.9987 12.4531C16.9987 14.9604 14.9588 17.0002 12.4515 17.0002H4.54714C2.03984 17.0002 0 14.9604 0 12.4531V8.45838C0 7.8951 0.456626 7.43847 1.01991 7.43846L15.9652 7.43826Z" fill="white"/>
</svg>
