<svg width="1920" height="7049" viewBox="0 0 1920 7049" fill="none" xmlns="http://www.w3.org/2000/svg">
<g opacity="0.7" clip-path="url(#clip0_1_1106)">
<g opacity="0.1" filter="url(#filter0_f_1_1106)">
<path d="M133.5 5836.92C-4.12659 5672.78 400.985 5623.95 161.677 5422.67L-207.55 5342L-207.55 5486.28L-251.501 5732.46L-422.475 6690.13L-587.943 7616.96C-588.006 7648.58 -547.93 7773.73 -434.98 7626.4C-293.791 7442.24 -118.992 7532.65 -91.7494 7380.05C-63.2538 7220.44 -153.621 6922.92 3.01077 6849.28C128.316 6790.36 32.8529 6525.77 113.969 6449.8C158.059 6309.17 403.391 6494.22 400.895 6290.55C397.774 6035.96 271.127 6001.07 133.5 5836.92Z" fill="url(#paint0_linear_1_1106)"/>
</g>
<g opacity="0.15" filter="url(#filter1_f_1_1106)">
<path d="M-252.06 3357.43C-570.354 3633.52 74.2128 3756.19 189.999 4071.5C254.246 4353.72 332.907 4361.24 668.999 4337.5C1005.09 4313.76 696.223 4082.24 918.226 3787.51C1140.23 3492.77 408.889 3602.74 15.5362 3653C-377.817 3703.26 1000.11 2715.27 828.999 2626C657.885 2536.73 66.235 3081.35 -252.06 3357.43Z" fill="url(#paint1_linear_1_1106)" fill-opacity="0.6"/>
</g>
<g opacity="0.2" filter="url(#filter2_f_1_1106)">
<path d="M2233.51 3431.73C2233.51 3431.73 1748.79 3365.2 1990.08 3128.84C2222.04 2953.62 2172.89 2750.56 2077.58 2424.84C2038.08 2289.84 1959.08 2165.84 1863.58 2289.84C1768.08 2413.84 1233.44 2448.64 1439.08 2790.84C1644.72 3133.04 1724.15 3081.68 1712 3276.2C1682.87 3742.34 2233.51 3431.73 2233.51 3431.73Z" fill="url(#paint2_linear_1_1106)" fill-opacity="0.7"/>
</g>
<g opacity="0.2" filter="url(#filter3_f_1_1106)">
<path d="M1570.15 5255.5C1497.65 5125 1618.15 5201 1830.65 5092C2124.15 5112 1727.65 5207.5 1727.65 5371.5C1727.65 5433.68 1642.65 5386 1570.15 5255.5Z" fill="url(#paint3_linear_1_1106)"/>
</g>
<g opacity="0.3" filter="url(#filter4_f_1_1106)">
<path d="M360.432 1740.41C437.792 1601.2 309.215 1682.27 82.4716 1566C-230.702 1587.33 192.375 1689.21 192.375 1864.15C192.375 1930.48 283.073 1879.62 360.432 1740.41Z" fill="url(#paint4_linear_1_1106)"/>
</g>
<path d="M2120 4954.14C1976.39 4993.86 1856.75 5050.15 1810.97 5262.52C1765.19 5474.89 1519.43 5583.99 1598.49 5763.89C1710.1 6017.86 1985.3 6105.47 2249.79 6084.87C2461.38 6068.38 2484.5 6010.86 2469.62 5984.16" stroke="url(#paint5_radial_1_1106)" stroke-width="1.08296"/>
<path d="M2169.52 4942.36C2025.91 4982.09 1906.27 5038.37 1860.49 5250.74C1814.71 5463.11 1568.95 5572.21 1648.01 5752.11C1759.62 6006.09 2034.82 6093.7 2299.31 6073.09C2510.9 6056.61 2534.02 5999.08 2519.14 5972.38" stroke="url(#paint6_radial_1_1106)" stroke-width="1.08296"/>
<path d="M2219.04 4930.58C2075.43 4970.31 1955.79 5026.59 1910.01 5238.96C1864.23 5451.33 1618.47 5560.44 1697.53 5740.33C1809.14 5994.31 2084.34 6081.92 2348.82 6061.31C2560.41 6044.83 2583.54 5987.3 2568.66 5960.6" stroke="url(#paint7_radial_1_1106)" stroke-width="1.08296"/>
<path d="M2268.56 4918.81C2124.94 4958.53 2005.31 5014.81 1959.53 5227.18C1913.75 5439.56 1667.99 5548.66 1747.05 5728.56C1858.66 5982.53 2133.86 6070.14 2398.34 6049.53C2609.93 6033.05 2633.06 5975.53 2618.18 5948.83" stroke="url(#paint8_radial_1_1106)" stroke-width="1.08296"/>
<path d="M-92.2831 348C36.3118 352.676 148.073 376.057 228.97 545.335C309.868 714.613 538.144 757.166 507.671 924.105C464.65 1159.78 250.948 1288.38 24.6214 1323.92C-156.44 1352.35 -187.365 1308.64 -180.195 1283.24" stroke="url(#paint9_radial_1_1106)"/>
<path d="M-136.24 348C-7.64521 352.676 104.115 376.057 185.013 545.335C265.911 714.613 494.187 757.166 463.714 924.105C420.693 1159.78 206.991 1288.38 -19.3357 1323.92C-200.397 1352.35 -231.322 1308.64 -224.152 1283.24" stroke="url(#paint10_radial_1_1106)"/>
<path d="M-180.198 348C-51.6027 352.676 60.158 376.057 141.056 545.335C221.954 714.613 450.229 757.166 419.756 924.105C376.735 1159.78 163.034 1288.38 -63.2932 1323.92C-244.355 1352.35 -275.28 1308.64 -268.11 1283.24" stroke="url(#paint11_radial_1_1106)"/>
<path d="M-224.155 348C-95.5598 352.676 16.2009 376.057 97.0989 545.335C177.997 714.613 406.272 757.166 375.799 924.105C332.778 1159.78 119.077 1288.38 -107.25 1323.92C-288.312 1352.35 -319.237 1308.64 -312.067 1283.24" stroke="url(#paint12_radial_1_1106)"/>
<path d="M2013.47 692.726C1872.41 740.229 1756.24 802.716 1722.88 1015.17C1689.52 1227.61 1450.52 1349.54 1539.89 1522.72C1666.08 1767.22 1945.9 1837.95 2208.74 1802.38C2419.02 1773.93 2438.76 1715.77 2422.35 1690.24" stroke="url(#paint13_radial_1_1106)" stroke-width="1.08296"/>
<path d="M2062.22 678.243C1921.16 725.747 1804.99 788.234 1771.63 1000.68C1738.27 1213.13 1499.27 1335.05 1588.65 1508.24C1714.83 1752.74 1994.65 1823.47 2257.49 1787.9C2467.77 1759.45 2487.51 1701.28 2471.1 1675.76" stroke="url(#paint14_radial_1_1106)" stroke-width="1.08296"/>
<path d="M2110.97 663.759C1969.91 711.263 1853.74 773.749 1820.38 986.198C1787.02 1198.65 1548.02 1320.57 1637.4 1493.76C1763.58 1738.25 2043.4 1808.98 2306.24 1773.42C2516.52 1744.96 2536.26 1686.8 2519.85 1661.28" stroke="url(#paint15_radial_1_1106)" stroke-width="1.08296"/>
<path d="M2159.72 649.274C2018.66 696.778 1902.49 759.265 1869.13 971.714C1835.77 1184.16 1596.77 1306.08 1686.15 1479.27C1812.33 1723.77 2092.15 1794.5 2355 1758.93C2565.27 1730.48 2585.02 1672.32 2568.6 1646.79" stroke="url(#paint16_radial_1_1106)" stroke-width="1.08296"/>
<g opacity="0.1" filter="url(#filter5_f_1_1106)">
<path d="M1709.12 1313.71C1715.29 1118.94 1398.08 1311.74 1456.1 1033.25L1755.96 871.187L1925.78 1022.57L2586.42 1611.45L3225.78 2181.38C3243.6 2203.96 3285.28 2316 3121.67 2274.12C2917.16 2221.76 2842.95 2384.68 2737.69 2290.85C2627.58 2192.71 2524.98 1929.1 2371.54 1964.47C2248.79 1992.77 2168.34 1749.85 2067.62 1741.11C1957.02 1665.3 1885.57 1935.57 1772.86 1788.49C1631.98 1604.64 1702.96 1508.49 1709.12 1313.71Z" fill="url(#paint17_linear_1_1106)"/>
</g>
<g opacity="0.2" filter="url(#filter6_f_1_1106)">
<path d="M1810.15 220.093C1961.76 373.283 2076.12 661.543 1886.06 730.076C1696.01 798.609 1579.72 957.102 1375.7 803.397C1171.68 649.692 1130.97 430.292 1369.96 345.678C1608.94 261.065 1658.53 66.903 1810.15 220.093Z" fill="url(#paint18_linear_1_1106)" fill-opacity="0.73"/>
</g>
</g>
<defs>
<filter id="filter0_f_1_1106" x="-744.943" y="5185" width="1302.86" height="2668.66" filterUnits="userSpaceOnUse" color-interpolation-filters="sRGB">
<feFlood flood-opacity="0" result="BackgroundImageFix"/>
<feBlend mode="normal" in="SourceGraphic" in2="BackgroundImageFix" result="shape"/>
<feGaussianBlur stdDeviation="78.5" result="effect1_foregroundBlur_1_1106"/>
</filter>
<filter id="filter1_f_1_1106" x="-496.484" y="2459.23" width="1612.81" height="2043.83" filterUnits="userSpaceOnUse" color-interpolation-filters="sRGB">
<feFlood flood-opacity="0" result="BackgroundImageFix"/>
<feBlend mode="normal" in="SourceGraphic" in2="BackgroundImageFix" result="shape"/>
<feGaussianBlur stdDeviation="78.5" result="effect1_foregroundBlur_1_1106"/>
</filter>
<filter id="filter2_f_1_1106" x="1092.39" y="1938.75" width="1441.12" height="1894.36" filterUnits="userSpaceOnUse" color-interpolation-filters="sRGB">
<feFlood flood-opacity="0" result="BackgroundImageFix"/>
<feBlend mode="normal" in="SourceGraphic" in2="BackgroundImageFix" result="shape"/>
<feGaussianBlur stdDeviation="150" result="effect1_foregroundBlur_1_1106"/>
</filter>
<filter id="filter3_f_1_1106" x="1392" y="4935" width="703.867" height="620.541" filterUnits="userSpaceOnUse" color-interpolation-filters="sRGB">
<feFlood flood-opacity="0" result="BackgroundImageFix"/>
<feBlend mode="normal" in="SourceGraphic" in2="BackgroundImageFix" result="shape"/>
<feGaussianBlur stdDeviation="78.5" result="effect1_foregroundBlur_1_1106"/>
</filter>
<filter id="filter4_f_1_1106" x="-190" y="1409" width="730" height="641" filterUnits="userSpaceOnUse" color-interpolation-filters="sRGB">
<feFlood flood-opacity="0" result="BackgroundImageFix"/>
<feBlend mode="normal" in="SourceGraphic" in2="BackgroundImageFix" result="shape"/>
<feGaussianBlur stdDeviation="78.5" result="effect1_foregroundBlur_1_1106"/>
</filter>
<filter id="filter5_f_1_1106" x="1243.01" y="665.187" width="2206.94" height="1861.41" filterUnits="userSpaceOnUse" color-interpolation-filters="sRGB">
<feFlood flood-opacity="0" result="BackgroundImageFix"/>
<feBlend mode="normal" in="SourceGraphic" in2="BackgroundImageFix" result="shape"/>
<feGaussianBlur stdDeviation="103" result="effect1_foregroundBlur_1_1106"/>
</filter>
<filter id="filter6_f_1_1106" x="1146.25" y="102.978" width="899.295" height="825.345" filterUnits="userSpaceOnUse" color-interpolation-filters="sRGB">
<feFlood flood-opacity="0" result="BackgroundImageFix"/>
<feBlend mode="normal" in="SourceGraphic" in2="BackgroundImageFix" result="shape"/>
<feGaussianBlur stdDeviation="30" result="effect1_foregroundBlur_1_1106"/>
</filter>
<linearGradient id="paint0_linear_1_1106" x1="3.86068" y1="5850.07" x2="388.195" y2="6702.54" gradientUnits="userSpaceOnUse">
<stop offset="0.0364583" stop-color="#5D35FF"/>
<stop offset="0.0625" stop-color="#1888EF"/>
<stop offset="0.473958" stop-color="#1888EF"/>
<stop offset="1" stop-color="#3AF4BC" stop-opacity="0.58"/>
</linearGradient>
<linearGradient id="paint1_linear_1_1106" x1="-398.008" y1="3703.13" x2="-110.315" y2="3069.41" gradientUnits="userSpaceOnUse">
<stop stop-color="#5D35FF"/>
<stop offset="0.473958" stop-color="#1888EF"/>
<stop offset="1" stop-color="#3AF4BC" stop-opacity="0.58"/>
</linearGradient>
<linearGradient id="paint2_linear_1_1106" x1="2120.08" y1="3653.84" x2="1435.06" y2="3385.62" gradientUnits="userSpaceOnUse">
<stop stop-color="#5D35FF"/>
<stop offset="1" stop-color="#3AF4BC" stop-opacity="0.58"/>
</linearGradient>
<linearGradient id="paint3_linear_1_1106" x1="1623.07" y1="5204.1" x2="1966.74" y2="5259.75" gradientUnits="userSpaceOnUse">
<stop stop-color="#6946F5"/>
<stop offset="0.466146" stop-color="#1861EF"/>
<stop offset="1" stop-color="#29E9AF"/>
</linearGradient>
<linearGradient id="paint4_linear_1_1106" x1="303.969" y1="1685.58" x2="-62.731" y2="1744.98" gradientUnits="userSpaceOnUse">
<stop stop-color="#6946F5"/>
<stop offset="0.466146" stop-color="#1861EF"/>
<stop offset="1" stop-color="#29E9AF"/>
</linearGradient>
<radialGradient id="paint5_radial_1_1106" cx="0" cy="0" r="1" gradientUnits="userSpaceOnUse" gradientTransform="translate(1962.53 5577.91) rotate(76.6214) scale(570.404 400.411)">
<stop stop-color="#48BC65"/>
<stop offset="1" stop-color="#48BC65" stop-opacity="0"/>
</radialGradient>
<radialGradient id="paint6_radial_1_1106" cx="0" cy="0" r="1" gradientUnits="userSpaceOnUse" gradientTransform="translate(2012.05 5566.13) rotate(76.6214) scale(570.404 400.411)">
<stop stop-color="#48BC65"/>
<stop offset="1" stop-color="#48BC65" stop-opacity="0"/>
</radialGradient>
<radialGradient id="paint7_radial_1_1106" cx="0" cy="0" r="1" gradientUnits="userSpaceOnUse" gradientTransform="translate(2061.57 5554.35) rotate(76.6214) scale(570.404 400.411)">
<stop stop-color="#48BC65"/>
<stop offset="1" stop-color="#48BC65" stop-opacity="0"/>
</radialGradient>
<radialGradient id="paint8_radial_1_1106" cx="0" cy="0" r="1" gradientUnits="userSpaceOnUse" gradientTransform="translate(2111.08 5542.57) rotate(76.6214) scale(570.404 400.411)">
<stop stop-color="#48BC65"/>
<stop offset="1" stop-color="#48BC65" stop-opacity="0"/>
</radialGradient>
<radialGradient id="paint9_radial_1_1106" cx="0" cy="0" r="1" gradientUnits="userSpaceOnUse" gradientTransform="translate(164.661 840.594) rotate(90) scale(492.594 345.791)">
<stop stop-color="#48BC65"/>
<stop offset="1" stop-color="#48BC65" stop-opacity="0"/>
</radialGradient>
<radialGradient id="paint10_radial_1_1106" cx="0" cy="0" r="1" gradientUnits="userSpaceOnUse" gradientTransform="translate(120.704 840.594) rotate(90) scale(492.594 345.791)">
<stop stop-color="#48BC65"/>
<stop offset="1" stop-color="#48BC65" stop-opacity="0"/>
</radialGradient>
<radialGradient id="paint11_radial_1_1106" cx="0" cy="0" r="1" gradientUnits="userSpaceOnUse" gradientTransform="translate(76.7466 840.594) rotate(90) scale(492.594 345.791)">
<stop stop-color="#48BC65"/>
<stop offset="1" stop-color="#48BC65" stop-opacity="0"/>
</radialGradient>
<radialGradient id="paint12_radial_1_1106" cx="0" cy="0" r="1" gradientUnits="userSpaceOnUse" gradientTransform="translate(32.7896 840.594) rotate(90) scale(492.594 345.791)">
<stop stop-color="#48BC65"/>
<stop offset="1" stop-color="#48BC65" stop-opacity="0"/>
</radialGradient>
<radialGradient id="paint13_radial_1_1106" cx="0" cy="0" r="1" gradientUnits="userSpaceOnUse" gradientTransform="translate(1892.51 1318.04) rotate(73.1249) scale(564.984 400.063)">
<stop stop-color="#48BC65"/>
<stop offset="1" stop-color="#48BC65" stop-opacity="0"/>
</radialGradient>
<radialGradient id="paint14_radial_1_1106" cx="0" cy="0" r="1" gradientUnits="userSpaceOnUse" gradientTransform="translate(1941.26 1303.56) rotate(73.1249) scale(564.984 400.063)">
<stop stop-color="#48BC65"/>
<stop offset="1" stop-color="#48BC65" stop-opacity="0"/>
</radialGradient>
<radialGradient id="paint15_radial_1_1106" cx="0" cy="0" r="1" gradientUnits="userSpaceOnUse" gradientTransform="translate(1990.01 1289.08) rotate(73.1249) scale(564.984 400.063)">
<stop stop-color="#48BC65"/>
<stop offset="1" stop-color="#48BC65" stop-opacity="0"/>
</radialGradient>
<radialGradient id="paint16_radial_1_1106" cx="0" cy="0" r="1" gradientUnits="userSpaceOnUse" gradientTransform="translate(2038.76 1274.59) rotate(73.1249) scale(564.984 400.063)">
<stop stop-color="#48BC65"/>
<stop offset="1" stop-color="#48BC65" stop-opacity="0"/>
</radialGradient>
<linearGradient id="paint17_linear_1_1106" x1="1809.24" y1="1250.24" x2="2013.54" y2="2076.04" gradientUnits="userSpaceOnUse">
<stop offset="0.0364583" stop-color="#E7A162"/>
<stop offset="0.0625" stop-color="#3B6D47"/>
<stop offset="0.473958" stop-color="#F0D981"/>
<stop offset="1" stop-color="#D3A082"/>
</linearGradient>
<linearGradient id="paint18_linear_1_1106" x1="1329.32" y1="313.128" x2="1908.37" y2="744.4" gradientUnits="userSpaceOnUse">
<stop stop-color="#E5C7B1"/>
<stop offset="0.307292" stop-color="#CCE2CE"/>
<stop offset="0.677083" stop-color="#F0DD8D" stop-opacity="0.46"/>
<stop offset="1" stop-color="#E5C7B1" stop-opacity="0"/>
</linearGradient>
<clipPath id="clip0_1_1106">
<rect width="1920" height="7049" fill="white"/>
</clipPath>
</defs>
</svg>
