<svg width="9" height="9" viewBox="0 0 9 9" fill="none" xmlns="http://www.w3.org/2000/svg">
<path d="M6.1705 2.7956C6.24974 2.72016 6.35519 2.67846 6.46459 2.67929C6.57399 2.68012 6.67879 2.72341 6.75688 2.80004C6.83496 2.87667 6.88023 2.98063 6.88312 3.09C6.88601 3.19936 6.84631 3.30558 6.77238 3.38622L4.52801 6.19308C4.48942 6.23465 4.44284 6.26801 4.39106 6.29116C4.33928 6.31432 4.28337 6.32679 4.22666 6.32784C4.16995 6.32889 4.11361 6.3185 4.061 6.29728C4.0084 6.27605 3.96062 6.24444 3.92052 6.20433L2.43215 4.71597C2.3907 4.67734 2.35746 4.63077 2.3344 4.57902C2.31134 4.52727 2.29894 4.47141 2.29794 4.41476C2.29694 4.35812 2.30736 4.30185 2.32858 4.24932C2.3498 4.19679 2.38138 4.14907 2.42144 4.10901C2.4615 4.06895 2.50922 4.03737 2.56175 4.01615C2.61428 3.99493 2.67055 3.98451 2.72719 3.98551C2.78384 3.98651 2.8397 3.99891 2.89145 4.02197C2.9432 4.04503 2.98977 4.07827 3.0284 4.11972L4.20627 5.29703L6.15982 2.80798C6.16333 2.80365 6.16709 2.79951 6.17107 2.7956H6.1705Z" fill="#191820"/>
</svg>
