<svg width="17" height="19" viewBox="0 0 17 19" fill="none" xmlns="http://www.w3.org/2000/svg">
<path d="M16.2339 6.36761V12.1903C16.2339 13.1438 15.7231 14.0291 14.8974 14.5144L9.8408 17.4342C9.01506 17.911 7.99352 17.911 7.15927 17.4342L2.10266 14.5144C1.27692 14.0376 0.766152 13.1523 0.766152 12.1903V6.36761C0.766152 5.41417 1.27692 4.5288 2.10266 4.04358L7.15927 1.12369C7.98501 0.646973 9.00655 0.646973 9.8408 1.12369L14.8974 4.04358C15.7231 4.5288 16.2339 5.40566 16.2339 6.36761Z" stroke="#B9B8BB" stroke-width="1.5" stroke-linecap="round" stroke-linejoin="round"/>
<path d="M8.50426 8.42818C9.5997 8.42818 10.4877 7.54013 10.4877 6.44469C10.4877 5.34924 9.5997 4.46124 8.50426 4.46124C7.40881 4.46124 6.52077 5.34924 6.52077 6.44469C6.52077 7.54013 7.40881 8.42818 8.50426 8.42818Z" stroke="#B9B8BB" stroke-width="1.5" stroke-linecap="round" stroke-linejoin="round"/>
<path d="M11.9094 13.2459C11.9094 11.7136 10.3857 10.4707 8.50432 10.4707C6.62299 10.4707 5.0992 11.7136 5.0992 13.2459" stroke="#B9B8BB" stroke-width="1.5" stroke-linecap="round" stroke-linejoin="round"/>
</svg>
