<svg width="20" height="20" viewBox="0 0 20 20" fill="none" xmlns="http://www.w3.org/2000/svg">
<path fill-rule="evenodd" clip-rule="evenodd" d="M1.04169 5.83317C1.04169 3.18681 3.18699 1.0415 5.83335 1.0415H14.1667C16.8131 1.0415 18.9584 3.18681 18.9584 5.83317V14.1665C18.9584 16.8129 16.8131 18.9582 14.1667 18.9582H5.83335C3.18699 18.9582 1.04169 16.8129 1.04169 14.1665V5.83317ZM7.38636 10.1135L9.05302 11.7802C9.34591 12.0731 9.82079 12.0731 10.1137 11.7802L13.447 8.44683C13.7399 8.15394 13.7399 7.67907 13.447 7.38617C13.1541 7.09328 12.6793 7.09328 12.3864 7.38617L9.58335 10.1892L8.44702 9.05284C8.15412 8.75995 7.67925 8.75995 7.38636 9.05284C7.09346 9.34573 7.09346 9.82061 7.38636 10.1135Z" fill="#48BC65"/>
</svg>
