<svg width="34" height="34" viewBox="0 0 34 34" fill="none" xmlns="http://www.w3.org/2000/svg">
<rect opacity="0.4" x="15.1113" y="12.2773" width="12.2778" height="13.2222" fill="white"/>
<path d="M28.334 8.49935H17.0007L15.0032 6.50185C14.4648 5.96352 13.7423 5.66602 12.9915 5.66602H5.66732C4.09482 5.66602 2.84815 6.92685 2.84815 8.49935L2.83398 25.4993C2.83398 27.0718 4.09482 28.3327 5.66732 28.3327H28.334C29.8923 28.3327 31.1673 27.0577 31.1673 25.4993V11.3327C31.1673 9.77435 29.8923 8.49935 28.334 8.49935ZM25.5007 19.8327H22.6673V22.666C22.6673 23.4452 22.0298 24.0827 21.2507 24.0827C20.4715 24.0827 19.834 23.4452 19.834 22.666V19.8327H17.0007C16.2215 19.8327 15.584 19.1952 15.584 18.416C15.584 17.6368 16.2215 16.9993 17.0007 16.9993H19.834V14.166C19.834 13.3868 20.4715 12.7493 21.2507 12.7493C22.0298 12.7493 22.6673 13.3868 22.6673 14.166V16.9993H25.5007C26.2798 16.9993 26.9173 17.6368 26.9173 18.416C26.9173 19.1952 26.2798 19.8327 25.5007 19.8327Z" fill="white"/>
</svg>
