<svg width="22" height="23" viewBox="0 0 22 23" fill="none" xmlns="http://www.w3.org/2000/svg">
<path fill-rule="evenodd" clip-rule="evenodd" d="M14.331 4.46855V0.515659C18.8963 1.96688 21.9957 6.20665 21.9999 10.9991C21.9915 15.7872 18.8922 20.0186 14.331 21.4698V17.5338C16.7896 16.2808 18.3351 13.7581 18.3351 10.9991C18.3309 8.24005 16.7854 5.7215 14.331 4.46855ZM0 10.9981C0.00418836 6.20993 3.10776 1.97438 7.66889 0.527379V4.45918C5.21032 5.70791 3.66482 8.23489 3.66482 10.9939C3.66901 13.7529 5.21451 16.2715 7.66889 17.5244V21.4773C3.10358 20.0261 0 15.7905 0 10.9981Z" fill="#3D92EF"/>
<path fill-rule="evenodd" clip-rule="evenodd" d="M10.9962 0C10.1879 0.00421867 9.38369 0.101248 8.59628 0.282651V4.07946C9.36693 3.80524 10.1795 3.66603 10.9962 3.66181C11.8129 3.66603 12.6255 3.80524 13.3961 4.07524V0.274214C12.6087 0.0970294 11.8046 0.00421867 10.9962 0ZM10.9962 7.16845C10.1208 7.16845 9.27479 7.47219 8.59628 8.02062V13.9816C9.27479 14.53 10.125 14.8338 10.9962 14.8338C11.8716 14.8338 12.7176 14.53 13.3961 13.9816V8.02062C12.7176 7.47219 11.8716 7.16845 10.9962 7.16845ZM11.0021 18.3407C11.8188 18.3365 12.6313 18.1973 13.402 17.9231V21.7199C12.6146 21.9013 11.8104 21.9983 11.0021 22.0025C10.1937 21.9983 9.38955 21.9097 8.60214 21.7283V17.9273C9.37279 18.1973 10.1853 18.3365 11.0021 18.3407Z" fill="#81BFFF"/>
<path fill-rule="evenodd" clip-rule="evenodd" d="M8.59628 9.99659C9.38788 9.89534 10.192 9.84472 11.0004 9.8405C11.8087 9.84472 12.6129 9.89534 13.4003 9.99237V21.7329C12.6129 21.8342 11.8087 21.8848 11.0004 21.889C10.192 21.8848 9.38369 21.8342 8.59628 21.7372V9.99659Z" fill="#81BFFF"/>
</svg>
