<svg width="13" height="4" viewBox="0 0 13 4" fill="none" xmlns="http://www.w3.org/2000/svg">
<path d="M1.6345 0C0.760234 0 0 0.760234 0 1.6345C0 2.50877 0.760234 3.26901 1.6345 3.26901C2.50877 3.26901 3.26901 2.50877 3.26901 1.6345C3.26901 0.760234 2.50877 0 1.6345 0ZM11.3655 0C10.4912 0 9.73099 0.760234 9.73099 1.6345C9.73099 2.50877 10.4912 3.26901 11.3655 3.26901C12.2398 3.26901 13 2.50877 13 1.6345C13 0.760234 12.2398 0 11.3655 0ZM6.5 0C5.62573 0 4.8655 0.760234 4.8655 1.6345C4.8655 2.50877 5.62573 3.26901 6.5 3.26901C7.37427 3.26901 8.1345 2.50877 8.1345 1.6345C8.1345 0.760234 7.37427 0 6.5 0Z" fill="#B9B8BB"/>
</svg>
