<svg width="20" height="20" viewBox="0 0 20 20" fill="none" xmlns="http://www.w3.org/2000/svg">
<path d="M3.26286 1.82332C3.53306 1.62857 3.89326 1.61341 4.17886 1.78477L16.6789 9.28477C16.9299 9.43538 17.0835 9.70663 17.0835 9.99935C17.0835 10.2921 16.9299 10.5633 16.6789 10.7139L4.17886 18.2139C3.89326 18.3853 3.53306 18.3701 3.26286 18.1754C2.99266 17.9806 2.86438 17.6437 2.93663 17.3186L4.37794 10.8327L8.75008 10.8327C9.21032 10.8327 9.58341 10.4596 9.58341 9.99935C9.58341 9.53911 9.21032 9.16602 8.75008 9.16602L4.37794 9.16602L2.93663 2.68013C2.86438 2.35499 2.99266 2.01806 3.26286 1.82332Z" fill="white"/>
</svg>
